<svg xmlns="http://www.w3.org/2000/svg" width="272" height="79" fill="none"><path fill="#000" fill-rule="evenodd" d="M117.526 1.702c-.385 1.75.275 8.242 1.798 17.705.475 2.956.866 6.652.867 8.211l.003 2.837h-8.573l-3.626-3.831c-1.994-2.108-4.543-4.287-5.665-4.843l-2.038-1.013-3.092.257-3.092.256-1.76 1.253-1.759 1.253-2.94 5.353-2.94 5.353-2.892-4.404-2.892-4.405-1.504-.377c-.828-.208-2.157-.08-2.954.282l-1.449.66v2.094c0 1.152.674 4.42 1.499 7.263l1.498 5.17.625 10.515c.344 5.783.901 11.942 1.239 13.685l.613 3.171 1.804 2.054 1.803 2.055h4.057l1.102-1.103 1.103-1.103.419-6.212c.55-8.174 2.253-16.383 4.958-23.915l2.198-6.12 1.689-1.823 1.688-1.824 1.741 2.019 1.74 2.018.631 2.759c.347 1.517 1.177 9.342 1.844 17.39.667 8.046 1.36 15.285 1.54 16.086.513 2.288 2.421 4.576 4.729 5.671l2.118 1.004 1.166-.37 1.165-.37.674-2.25.675-2.252-.295-7.416c-.162-4.08-.862-11.044-1.555-15.478-.694-4.434-1.262-8.136-1.262-8.226-.001-.09.725-.44 1.613-.778l1.616-.614 2.266.383 2.266.383v2.85c0 1.566.409 6.926.909 11.91l.908 9.061.945 2.36c.519 1.3 1.867 3.171 2.993 4.16l2.05 1.8h3.454l1.238-1.574c.68-.865 1.238-1.926 1.238-2.356v-.784l3.345 1.76 3.344 1.76 2.777-.014 2.775-.013 2.671-1.21c1.468-.667 3.519-1.86 4.557-2.652 1.037-.79 2.144-1.516 2.458-1.611.315-.096 2.179 1.842 4.143 4.305l3.571 4.479 3.136 1.702 3.137 1.703 3.469.314 3.469.315L182 76.81c3.956-1.81 5.965-1.928 10.989-.64l3.621.927 3.385-.626c1.862-.344 4.535-1.3 5.942-2.124 5.052-2.96 11.285-10.83 13.655-17.242.501-1.356 1.82-4.884 2.931-7.84l2.02-5.374.673 3.284c.371 1.807.924 5.744 1.229 8.75l.554 5.463 1.185 2.3c1.235 2.396 4.522 5.823 6.066 6.322.493.16 1.631-.08 2.53-.534l1.633-.825.365-1.456.366-1.457-1.53-6.445c-1.56-6.578-4.368-25.644-3.852-26.16.156-.157 6.981-.69 15.166-1.184 8.185-.495 15.984-1.044 17.332-1.22 5.497-.72 7.417-6.329 2.771-8.095l-1.573-.598-16.753-.116c-9.214-.064-17.294.082-17.954.323l-1.201.439-1.103-4.921c-1.42-6.335-3.667-12.296-5.283-14.017L223.89 2.39h-5.192l-.647 1.42-.647 1.42.594 5.895c.531 5.264.257 12.879-.487 13.55-.154.139-3.639.85-7.744 1.579-4.106.729-8.442 1.571-9.635 1.872l-2.172.547-.317 1.216c-.41 1.566.466 4.607 1.728 6.001.542.6 1.843 1.372 2.89 1.718l1.903.628 5.636-1.155c3.099-.636 5.756-1.035 5.904-.887.575.576-3.23 10.844-6.268 16.913l-3.195 6.382-3.229 3.054-3.229 3.054-2.45.66-2.45.66-1.665-.41c-2.823-.696-4.175-1.947-5.593-5.177l-1.365-3.106.062-5.375.061-5.374 1.233-5.606 1.233-5.605 1.532-2.009c.843-1.105 2.289-2.4 3.213-2.878l1.68-.869.38-2.374c.887-5.55-2.499-7.553-8.305-4.916-4.802 2.181-7.439 6.8-9.268 16.235l-1.158 5.974v10.748l1.277 5.092 1.277 5.09-.608.609c-.333.333-1.687.751-3.006.929l-2.399.322-1.844-1.09c-1.013-.599-2.283-2.016-2.82-3.148l-.978-2.06-.299-4.834-.299-4.834 2.533-8.061 2.533-8.062.288-4.777.289-4.778-1.266-1.599c-1.444-1.824-4.864-3.156-6.802-2.65-.721.19-1.876 1.225-2.566 2.301l-1.254 1.958-5.017.714c-2.758.392-6.627 1.392-8.598 2.22l-3.583 1.507-6.048.014-6.047.014-.609-.746c-.334-.41-1.185-4.643-1.89-9.406C126.721 4.26 124.71 0 119.317 0H117.9l-.374 1.702Zm-99.744 8.696c-2.576 1.146-8.582 7.48-11.214 11.827C3.854 26.705 1.725 33.18.732 39.969L0 44.978l.366 5.13c.967 13.56 6.411 24.3 14.024 27.668L17.156 79h7.865l3.248-1.63c4-2.01 7.596-4.868 11.97-9.513l3.347-3.556 2.059 1.57c2.904 2.215 6.022 3.399 8.952 3.399h2.518l2.588-1.253c1.424-.689 4.177-2.842 6.12-4.784l3.532-3.532 1.525-3.128c.838-1.72 1.8-4.589 2.136-6.375l.611-3.248-.649-3.578c-1.214-6.699-5.83-13.392-11.088-16.078-2.482-1.268-11.77-4.005-13.59-4.005-1.845 0-2.29.44-8.193 8.12-5.387 7.007-6.5 9.033-6.5 11.822v2.086l1.402 1.631 1.403 1.631 1.881-1.34 1.882-1.34v.862c0 3.4-5.593 12.016-11.186 17.234-1.643 1.532-4.413 3.508-6.154 4.39l-3.167 1.605-2.074-.336c-1.14-.185-2.712-.936-3.493-1.67l-1.418-1.333-1.244-3.915-1.243-3.916-.317-6.933-.316-6.933.995-4.474c.547-2.46 1.916-6.395 3.042-8.744l2.046-4.27 2.86-3.06c1.572-1.684 4.269-3.86 5.994-4.834l3.134-1.771v-1.9c0-2.456-1.438-4.469-3.94-5.514-2.441-1.02-3.6-1.018-5.912.011Zm42.392 24.936c2.195 1.727 3.86 5.548 3.86 8.855v2.688l-1.153 2.541c-.635 1.398-1.863 3.473-2.73 4.61-1.831 2.4-6.542 5.688-8.15 5.688h-1.107l-.622-1.637c-.821-2.16-.37-4.27 2.14-10.015 1.145-2.623 2.534-6.853 3.086-9.398l1.004-4.628h1.011c.557 0 1.755.583 2.661 1.296Zm96.446 9.536v5.457l-3.343 3.808c-1.839 2.094-4.516 4.495-5.95 5.335l-2.608 1.528-1.364-.193-1.364-.194-.795-2.388-.795-2.389.675-3.078c.785-3.578 3.541-8.019 6.212-10.009 1.905-1.419 6.401-3.203 8.287-3.288l1.045-.047v5.458Zm-22.393-2.472c-1.091 2.11-1.856 2.276-2.413.522l-.402-1.269.81-.513c.445-.282 1.287-.517 1.871-.523l1.06-.009-.926 1.792Z" clip-rule="evenodd"/><path fill="#000" fill-rule="evenodd" d="M117.526 1.702c-.385 1.75.275 8.242 1.798 17.705.475 2.956.866 6.652.867 8.211l.003 2.837h-8.573l-3.626-3.831c-1.994-2.108-4.543-4.287-5.665-4.843l-2.038-1.013-3.092.257-3.092.256-1.76 1.253-1.759 1.253-2.94 5.353-2.94 5.353-2.892-4.404-2.892-4.405-1.504-.377c-.828-.208-2.157-.08-2.954.282l-1.449.66v2.094c0 1.152.674 4.42 1.499 7.263l1.498 5.17.625 10.515c.344 5.783.901 11.942 1.239 13.685l.613 3.171 1.804 2.054 1.803 2.055h4.057l1.102-1.103 1.103-1.103.419-6.212c.55-8.174 2.253-16.383 4.958-23.915l2.198-6.12 1.689-1.823 1.688-1.824 1.741 2.019 1.74 2.018.631 2.759c.347 1.517 1.177 9.342 1.844 17.39.667 8.046 1.36 15.285 1.54 16.086.513 2.288 2.421 4.576 4.729 5.671l2.118 1.004 1.166-.37 1.165-.37.674-2.25.675-2.252-.295-7.416c-.162-4.08-.862-11.044-1.555-15.478-.694-4.434-1.262-8.136-1.262-8.226-.001-.09.725-.44 1.613-.778l1.616-.614 2.266.383 2.266.383v2.85c0 1.566.409 6.926.909 11.91l.908 9.061.945 2.36c.519 1.3 1.867 3.171 2.993 4.16l2.05 1.8h3.454l1.238-1.574c.68-.865 1.238-1.926 1.238-2.356v-.784l3.345 1.76 3.344 1.76 2.777-.014 2.775-.013 2.671-1.21c1.468-.667 3.519-1.86 4.557-2.652 1.037-.79 2.144-1.516 2.458-1.611.315-.096 2.179 1.842 4.143 4.305l3.571 4.479 3.136 1.702 3.137 1.703 3.469.314 3.469.315L182 76.81c3.956-1.81 5.965-1.928 10.989-.64l3.621.927 3.385-.626c1.862-.344 4.535-1.3 5.942-2.124 5.052-2.96 11.285-10.83 13.655-17.242.501-1.356 1.82-4.884 2.931-7.84l2.02-5.374.673 3.284c.371 1.807.924 5.744 1.229 8.75l.554 5.463 1.185 2.3c1.235 2.396 4.522 5.823 6.066 6.322.493.16 1.631-.08 2.53-.534l1.633-.825.365-1.456.366-1.457-1.53-6.445c-1.56-6.578-4.368-25.644-3.852-26.16.156-.157 6.981-.69 15.166-1.184 8.185-.495 15.984-1.044 17.332-1.22 5.497-.72 7.417-6.329 2.771-8.095l-1.573-.598-16.753-.116c-9.214-.064-17.294.082-17.954.323l-1.201.439-1.103-4.921c-1.42-6.335-3.667-12.296-5.283-14.017L223.89 2.39h-5.192l-.647 1.42-.647 1.42.594 5.895c.531 5.264.257 12.879-.487 13.55-.154.139-3.639.85-7.744 1.579-4.106.729-8.442 1.571-9.635 1.872l-2.172.547-.317 1.216c-.41 1.566.466 4.607 1.728 6.001.542.6 1.843 1.372 2.89 1.718l1.903.628 5.636-1.155c3.099-.636 5.756-1.035 5.904-.887.575.576-3.23 10.844-6.268 16.913l-3.195 6.382-3.229 3.054-3.229 3.054-2.45.66-2.45.66-1.665-.41c-2.823-.696-4.175-1.947-5.593-5.177l-1.365-3.106.062-5.375.061-5.374 1.233-5.606 1.233-5.605 1.532-2.009c.843-1.105 2.289-2.4 3.213-2.878l1.68-.869.38-2.374c.887-5.55-2.499-7.553-8.305-4.916-4.802 2.181-7.439 6.8-9.268 16.235l-1.158 5.974v10.748l1.277 5.092 1.277 5.09-.608.609c-.333.333-1.687.751-3.006.929l-2.399.322-1.844-1.09c-1.013-.599-2.283-2.016-2.82-3.148l-.978-2.06-.299-4.834-.299-4.834 2.533-8.061 2.533-8.062.288-4.777.289-4.778-1.266-1.599c-1.444-1.824-4.864-3.156-6.802-2.65-.721.19-1.876 1.225-2.566 2.301l-1.254 1.958-5.017.714c-2.758.392-6.627 1.392-8.598 2.22l-3.583 1.507-6.048.014-6.047.014-.609-.746c-.334-.41-1.185-4.643-1.89-9.406C126.721 4.26 124.71 0 119.317 0H117.9l-.374 1.702Zm-99.744 8.696c-2.576 1.146-8.582 7.48-11.214 11.827C3.854 26.705 1.725 33.18.732 39.969L0 44.978l.366 5.13c.967 13.56 6.411 24.3 14.024 27.668L17.156 79h7.865l3.248-1.63c4-2.01 7.596-4.868 11.97-9.513l3.347-3.556 2.059 1.57c2.904 2.215 6.022 3.399 8.952 3.399h2.518l2.588-1.253c1.424-.689 4.177-2.842 6.12-4.784l3.532-3.532 1.525-3.128c.838-1.72 1.8-4.589 2.136-6.375l.611-3.248-.649-3.578c-1.214-6.699-5.83-13.392-11.088-16.078-2.482-1.268-11.77-4.005-13.59-4.005-1.845 0-2.29.44-8.193 8.12-5.387 7.007-6.5 9.033-6.5 11.822v2.086l1.402 1.631 1.403 1.631 1.881-1.34 1.882-1.34v.862c0 3.4-5.593 12.016-11.186 17.234-1.643 1.532-4.413 3.508-6.154 4.39l-3.167 1.605-2.074-.336c-1.14-.185-2.712-.936-3.493-1.67l-1.418-1.333-1.244-3.915-1.243-3.916-.317-6.933-.316-6.933.995-4.474c.547-2.46 1.916-6.395 3.042-8.744l2.046-4.27 2.86-3.06c1.572-1.684 4.269-3.86 5.994-4.834l3.134-1.771v-1.9c0-2.456-1.438-4.469-3.94-5.514-2.441-1.02-3.6-1.018-5.912.011Zm42.392 24.936c2.195 1.727 3.86 5.548 3.86 8.855v2.688l-1.153 2.541c-.635 1.398-1.863 3.473-2.73 4.61-1.831 2.4-6.542 5.688-8.15 5.688h-1.107l-.622-1.637c-.821-2.16-.37-4.27 2.14-10.015 1.145-2.623 2.534-6.853 3.086-9.398l1.004-4.628h1.011c.557 0 1.755.583 2.661 1.296Zm96.446 9.536v5.457l-3.343 3.808c-1.839 2.094-4.516 4.495-5.95 5.335l-2.608 1.528-1.364-.193-1.364-.194-.795-2.388-.795-2.389.675-3.078c.785-3.578 3.541-8.019 6.212-10.009 1.905-1.419 6.401-3.203 8.287-3.288l1.045-.047v5.458Zm-22.393-2.472c-1.091 2.11-1.856 2.276-2.413.522l-.402-1.269.81-.513c.445-.282 1.287-.517 1.871-.523l1.06-.009-.926 1.792Z" clip-rule="evenodd"/><path fill="#000" fill-rule="evenodd" d="M117.526 1.702c-.385 1.75.275 8.242 1.798 17.705.475 2.956.866 6.652.867 8.211l.003 2.837h-8.573l-3.626-3.831c-1.994-2.108-4.543-4.287-5.665-4.843l-2.038-1.013-3.092.257-3.092.256-1.76 1.253-1.759 1.253-2.94 5.353-2.94 5.353-2.892-4.404-2.892-4.405-1.504-.377c-.828-.208-2.157-.08-2.954.282l-1.449.66v2.094c0 1.152.674 4.42 1.499 7.263l1.498 5.17.625 10.515c.344 5.783.901 11.942 1.239 13.685l.613 3.171 1.804 2.054 1.803 2.055h4.057l1.102-1.103 1.103-1.103.419-6.212c.55-8.174 2.253-16.383 4.958-23.915l2.198-6.12 1.689-1.823 1.688-1.824 1.741 2.019 1.74 2.018.631 2.759c.347 1.517 1.177 9.342 1.844 17.39.667 8.046 1.36 15.285 1.54 16.086.513 2.288 2.421 4.576 4.729 5.671l2.118 1.004 1.166-.37 1.165-.37.674-2.25.675-2.252-.295-7.416c-.162-4.08-.862-11.044-1.555-15.478-.694-4.434-1.262-8.136-1.262-8.226-.001-.09.725-.44 1.613-.778l1.616-.614 2.266.383 2.266.383v2.85c0 1.566.409 6.926.909 11.91l.908 9.061.945 2.36c.519 1.3 1.867 3.171 2.993 4.16l2.05 1.8h3.454l1.238-1.574c.68-.865 1.238-1.926 1.238-2.356v-.784l3.345 1.76 3.344 1.76 2.777-.014 2.775-.013 2.671-1.21c1.468-.667 3.519-1.86 4.557-2.652 1.037-.79 2.144-1.516 2.458-1.611.315-.096 2.179 1.842 4.143 4.305l3.571 4.479 3.136 1.702 3.137 1.703 3.469.314 3.469.315L182 76.81c3.956-1.81 5.965-1.928 10.989-.64l3.621.927 3.385-.626c1.862-.344 4.535-1.3 5.942-2.124 5.052-2.96 11.285-10.83 13.655-17.242.501-1.356 1.82-4.884 2.931-7.84l2.02-5.374.673 3.284c.371 1.807.924 5.744 1.229 8.75l.554 5.463 1.185 2.3c1.235 2.396 4.522 5.823 6.066 6.322.493.16 1.631-.08 2.53-.534l1.633-.825.365-1.456.366-1.457-1.53-6.445c-1.56-6.578-4.368-25.644-3.852-26.16.156-.157 6.981-.69 15.166-1.184 8.185-.495 15.984-1.044 17.332-1.22 5.497-.72 7.417-6.329 2.771-8.095l-1.573-.598-16.753-.116c-9.214-.064-17.294.082-17.954.323l-1.201.439-1.103-4.921c-1.42-6.335-3.667-12.296-5.283-14.017L223.89 2.39h-5.192l-.647 1.42-.647 1.42.594 5.895c.531 5.264.257 12.879-.487 13.55-.154.139-3.639.85-7.744 1.579-4.106.729-8.442 1.571-9.635 1.872l-2.172.547-.317 1.216c-.41 1.566.466 4.607 1.728 6.001.542.6 1.843 1.372 2.89 1.718l1.903.628 5.636-1.155c3.099-.636 5.756-1.035 5.904-.887.575.576-3.23 10.844-6.268 16.913l-3.195 6.382-3.229 3.054-3.229 3.054-2.45.66-2.45.66-1.665-.41c-2.823-.696-4.175-1.947-5.593-5.177l-1.365-3.106.062-5.375.061-5.374 1.233-5.606 1.233-5.605 1.532-2.009c.843-1.105 2.289-2.4 3.213-2.878l1.68-.869.38-2.374c.887-5.55-2.499-7.553-8.305-4.916-4.802 2.181-7.439 6.8-9.268 16.235l-1.158 5.974v10.748l1.277 5.092 1.277 5.09-.608.609c-.333.333-1.687.751-3.006.929l-2.399.322-1.844-1.09c-1.013-.599-2.283-2.016-2.82-3.148l-.978-2.06-.299-4.834-.299-4.834 2.533-8.061 2.533-8.062.288-4.777.289-4.778-1.266-1.599c-1.444-1.824-4.864-3.156-6.802-2.65-.721.19-1.876 1.225-2.566 2.301l-1.254 1.958-5.017.714c-2.758.392-6.627 1.392-8.598 2.22l-3.583 1.507-6.048.014-6.047.014-.609-.746c-.334-.41-1.185-4.643-1.89-9.406C126.721 4.26 124.71 0 119.317 0H117.9l-.374 1.702Zm-99.744 8.696c-2.576 1.146-8.582 7.48-11.214 11.827C3.854 26.705 1.725 33.18.732 39.969L0 44.978l.366 5.13c.967 13.56 6.411 24.3 14.024 27.668L17.156 79h7.865l3.248-1.63c4-2.01 7.596-4.868 11.97-9.513l3.347-3.556 2.059 1.57c2.904 2.215 6.022 3.399 8.952 3.399h2.518l2.588-1.253c1.424-.689 4.177-2.842 6.12-4.784l3.532-3.532 1.525-3.128c.838-1.72 1.8-4.589 2.136-6.375l.611-3.248-.649-3.578c-1.214-6.699-5.83-13.392-11.088-16.078-2.482-1.268-11.77-4.005-13.59-4.005-1.845 0-2.29.44-8.193 8.12-5.387 7.007-6.5 9.033-6.5 11.822v2.086l1.402 1.631 1.403 1.631 1.881-1.34 1.882-1.34v.862c0 3.4-5.593 12.016-11.186 17.234-1.643 1.532-4.413 3.508-6.154 4.39l-3.167 1.605-2.074-.336c-1.14-.185-2.712-.936-3.493-1.67l-1.418-1.333-1.244-3.915-1.243-3.916-.317-6.933-.316-6.933.995-4.474c.547-2.46 1.916-6.395 3.042-8.744l2.046-4.27 2.86-3.06c1.572-1.684 4.269-3.86 5.994-4.834l3.134-1.771v-1.9c0-2.456-1.438-4.469-3.94-5.514-2.441-1.02-3.6-1.018-5.912.011Zm42.392 24.936c2.195 1.727 3.86 5.548 3.86 8.855v2.688l-1.153 2.541c-.635 1.398-1.863 3.473-2.73 4.61-1.831 2.4-6.542 5.688-8.15 5.688h-1.107l-.622-1.637c-.821-2.16-.37-4.27 2.14-10.015 1.145-2.623 2.534-6.853 3.086-9.398l1.004-4.628h1.011c.557 0 1.755.583 2.661 1.296Zm96.446 9.536v5.457l-3.343 3.808c-1.839 2.094-4.516 4.495-5.95 5.335l-2.608 1.528-1.364-.193-1.364-.194-.795-2.388-.795-2.389.675-3.078c.785-3.578 3.541-8.019 6.212-10.009 1.905-1.419 6.401-3.203 8.287-3.288l1.045-.047v5.458Zm-22.393-2.472c-1.091 2.11-1.856 2.276-2.413.522l-.402-1.269.81-.513c.445-.282 1.287-.517 1.871-.523l1.06-.009-.926 1.792Z" clip-rule="evenodd"/><path fill="#000" fill-rule="evenodd" d="M117.526 1.702c-.385 1.75.275 8.242 1.798 17.705.475 2.956.866 6.652.867 8.211l.003 2.837h-8.573l-3.626-3.831c-1.994-2.108-4.543-4.287-5.665-4.843l-2.038-1.013-3.092.257-3.092.256-1.76 1.253-1.759 1.253-2.94 5.353-2.94 5.353-2.892-4.404-2.892-4.405-1.504-.377c-.828-.208-2.157-.08-2.954.282l-1.449.66v2.094c0 1.152.674 4.42 1.499 7.263l1.498 5.17.625 10.515c.344 5.783.901 11.942 1.239 13.685l.613 3.171 1.804 2.054 1.803 2.055h4.057l1.102-1.103 1.103-1.103.419-6.212c.55-8.174 2.253-16.383 4.958-23.915l2.198-6.12 1.689-1.823 1.688-1.824 1.741 2.019 1.74 2.018.631 2.759c.347 1.517 1.177 9.342 1.844 17.39.667 8.046 1.36 15.285 1.54 16.086.513 2.288 2.421 4.576 4.729 5.671l2.118 1.004 1.166-.37 1.165-.37.674-2.25.675-2.252-.295-7.416c-.162-4.08-.862-11.044-1.555-15.478-.694-4.434-1.262-8.136-1.262-8.226-.001-.09.725-.44 1.613-.778l1.616-.614 2.266.383 2.266.383v2.85c0 1.566.409 6.926.909 11.91l.908 9.061.945 2.36c.519 1.3 1.867 3.171 2.993 4.16l2.05 1.8h3.454l1.238-1.574c.68-.865 1.238-1.926 1.238-2.356v-.784l3.345 1.76 3.344 1.76 2.777-.014 2.775-.013 2.671-1.21c1.468-.667 3.519-1.86 4.557-2.652 1.037-.79 2.144-1.516 2.458-1.611.315-.096 2.179 1.842 4.143 4.305l3.571 4.479 3.136 1.702 3.137 1.703 3.469.314 3.469.315L182 76.81c3.956-1.81 5.965-1.928 10.989-.64l3.621.927 3.385-.626c1.862-.344 4.535-1.3 5.942-2.124 5.052-2.96 11.285-10.83 13.655-17.242.501-1.356 1.82-4.884 2.931-7.84l2.02-5.374.673 3.284c.371 1.807.924 5.744 1.229 8.75l.554 5.463 1.185 2.3c1.235 2.396 4.522 5.823 6.066 6.322.493.16 1.631-.08 2.53-.534l1.633-.825.365-1.456.366-1.457-1.53-6.445c-1.56-6.578-4.368-25.644-3.852-26.16.156-.157 6.981-.69 15.166-1.184 8.185-.495 15.984-1.044 17.332-1.22 5.497-.72 7.417-6.329 2.771-8.095l-1.573-.598-16.753-.116c-9.214-.064-17.294.082-17.954.323l-1.201.439-1.103-4.921c-1.42-6.335-3.667-12.296-5.283-14.017L223.89 2.39h-5.192l-.647 1.42-.647 1.42.594 5.895c.531 5.264.257 12.879-.487 13.55-.154.139-3.639.85-7.744 1.579-4.106.729-8.442 1.571-9.635 1.872l-2.172.547-.317 1.216c-.41 1.566.466 4.607 1.728 6.001.542.6 1.843 1.372 2.89 1.718l1.903.628 5.636-1.155c3.099-.636 5.756-1.035 5.904-.887.575.576-3.23 10.844-6.268 16.913l-3.195 6.382-3.229 3.054-3.229 3.054-2.45.66-2.45.66-1.665-.41c-2.823-.696-4.175-1.947-5.593-5.177l-1.365-3.106.062-5.375.061-5.374 1.233-5.606 1.233-5.605 1.532-2.009c.843-1.105 2.289-2.4 3.213-2.878l1.68-.869.38-2.374c.887-5.55-2.499-7.553-8.305-4.916-4.802 2.181-7.439 6.8-9.268 16.235l-1.158 5.974v10.748l1.277 5.092 1.277 5.09-.608.609c-.333.333-1.687.751-3.006.929l-2.399.322-1.844-1.09c-1.013-.599-2.283-2.016-2.82-3.148l-.978-2.06-.299-4.834-.299-4.834 2.533-8.061 2.533-8.062.288-4.777.289-4.778-1.266-1.599c-1.444-1.824-4.864-3.156-6.802-2.65-.721.19-1.876 1.225-2.566 2.301l-1.254 1.958-5.017.714c-2.758.392-6.627 1.392-8.598 2.22l-3.583 1.507-6.048.014-6.047.014-.609-.746c-.334-.41-1.185-4.643-1.89-9.406C126.721 4.26 124.71 0 119.317 0H117.9l-.374 1.702Zm-99.744 8.696c-2.576 1.146-8.582 7.48-11.214 11.827C3.854 26.705 1.725 33.18.732 39.969L0 44.978l.366 5.13c.967 13.56 6.411 24.3 14.024 27.668L17.156 79h7.865l3.248-1.63c4-2.01 7.596-4.868 11.97-9.513l3.347-3.556 2.059 1.57c2.904 2.215 6.022 3.399 8.952 3.399h2.518l2.588-1.253c1.424-.689 4.177-2.842 6.12-4.784l3.532-3.532 1.525-3.128c.838-1.72 1.8-4.589 2.136-6.375l.611-3.248-.649-3.578c-1.214-6.699-5.83-13.392-11.088-16.078-2.482-1.268-11.77-4.005-13.59-4.005-1.845 0-2.29.44-8.193 8.12-5.387 7.007-6.5 9.033-6.5 11.822v2.086l1.402 1.631 1.403 1.631 1.881-1.34 1.882-1.34v.862c0 3.4-5.593 12.016-11.186 17.234-1.643 1.532-4.413 3.508-6.154 4.39l-3.167 1.605-2.074-.336c-1.14-.185-2.712-.936-3.493-1.67l-1.418-1.333-1.244-3.915-1.243-3.916-.317-6.933-.316-6.933.995-4.474c.547-2.46 1.916-6.395 3.042-8.744l2.046-4.27 2.86-3.06c1.572-1.684 4.269-3.86 5.994-4.834l3.134-1.771v-1.9c0-2.456-1.438-4.469-3.94-5.514-2.441-1.02-3.6-1.018-5.912.011Zm42.392 24.936c2.195 1.727 3.86 5.548 3.86 8.855v2.688l-1.153 2.541c-.635 1.398-1.863 3.473-2.73 4.61-1.831 2.4-6.542 5.688-8.15 5.688h-1.107l-.622-1.637c-.821-2.16-.37-4.27 2.14-10.015 1.145-2.623 2.534-6.853 3.086-9.398l1.004-4.628h1.011c.557 0 1.755.583 2.661 1.296Zm96.446 9.536v5.457l-3.343 3.808c-1.839 2.094-4.516 4.495-5.95 5.335l-2.608 1.528-1.364-.193-1.364-.194-.795-2.388-.795-2.389.675-3.078c.785-3.578 3.541-8.019 6.212-10.009 1.905-1.419 6.401-3.203 8.287-3.288l1.045-.047v5.458Zm-22.393-2.472c-1.091 2.11-1.856 2.276-2.413.522l-.402-1.269.81-.513c.445-.282 1.287-.517 1.871-.523l1.06-.009-.926 1.792Z" clip-rule="evenodd"/><path fill="#000" fill-rule="evenodd" d="M117.526 1.702c-.385 1.75.275 8.242 1.798 17.705.475 2.956.866 6.652.867 8.211l.003 2.837h-8.573l-3.626-3.831c-1.994-2.108-4.543-4.287-5.665-4.843l-2.038-1.013-3.092.257-3.092.256-1.76 1.253-1.759 1.253-2.94 5.353-2.94 5.353-2.892-4.404-2.892-4.405-1.504-.377c-.828-.208-2.157-.08-2.954.282l-1.449.66v2.094c0 1.152.674 4.42 1.499 7.263l1.498 5.17.625 10.515c.344 5.783.901 11.942 1.239 13.685l.613 3.171 1.804 2.054 1.803 2.055h4.057l1.102-1.103 1.103-1.103.419-6.212c.55-8.174 2.253-16.383 4.958-23.915l2.198-6.12 1.689-1.823 1.688-1.824 1.741 2.019 1.74 2.018.631 2.759c.347 1.517 1.177 9.342 1.844 17.39.667 8.046 1.36 15.285 1.54 16.086.513 2.288 2.421 4.576 4.729 5.671l2.118 1.004 1.166-.37 1.165-.37.674-2.25.675-2.252-.295-7.416c-.162-4.08-.862-11.044-1.555-15.478-.694-4.434-1.262-8.136-1.262-8.226-.001-.09.725-.44 1.613-.778l1.616-.614 2.266.383 2.266.383v2.85c0 1.566.409 6.926.909 11.91l.908 9.061.945 2.36c.519 1.3 1.867 3.171 2.993 4.16l2.05 1.8h3.454l1.238-1.574c.68-.865 1.238-1.926 1.238-2.356v-.784l3.345 1.76 3.344 1.76 2.777-.014 2.775-.013 2.671-1.21c1.468-.667 3.519-1.86 4.557-2.652 1.037-.79 2.144-1.516 2.458-1.611.315-.096 2.179 1.842 4.143 4.305l3.571 4.479 3.136 1.702 3.137 1.703 3.469.314 3.469.315L182 76.81c3.956-1.81 5.965-1.928 10.989-.64l3.621.927 3.385-.626c1.862-.344 4.535-1.3 5.942-2.124 5.052-2.96 11.285-10.83 13.655-17.242.501-1.356 1.82-4.884 2.931-7.84l2.02-5.374.673 3.284c.371 1.807.924 5.744 1.229 8.75l.554 5.463 1.185 2.3c1.235 2.396 4.522 5.823 6.066 6.322.493.16 1.631-.08 2.53-.534l1.633-.825.365-1.456.366-1.457-1.53-6.445c-1.56-6.578-4.368-25.644-3.852-26.16.156-.157 6.981-.69 15.166-1.184 8.185-.495 15.984-1.044 17.332-1.22 5.497-.72 7.417-6.329 2.771-8.095l-1.573-.598-16.753-.116c-9.214-.064-17.294.082-17.954.323l-1.201.439-1.103-4.921c-1.42-6.335-3.667-12.296-5.283-14.017L223.89 2.39h-5.192l-.647 1.42-.647 1.42.594 5.895c.531 5.264.257 12.879-.487 13.55-.154.139-3.639.85-7.744 1.579-4.106.729-8.442 1.571-9.635 1.872l-2.172.547-.317 1.216c-.41 1.566.466 4.607 1.728 6.001.542.6 1.843 1.372 2.89 1.718l1.903.628 5.636-1.155c3.099-.636 5.756-1.035 5.904-.887.575.576-3.23 10.844-6.268 16.913l-3.195 6.382-3.229 3.054-3.229 3.054-2.45.66-2.45.66-1.665-.41c-2.823-.696-4.175-1.947-5.593-5.177l-1.365-3.106.062-5.375.061-5.374 1.233-5.606 1.233-5.605 1.532-2.009c.843-1.105 2.289-2.4 3.213-2.878l1.68-.869.38-2.374c.887-5.55-2.499-7.553-8.305-4.916-4.802 2.181-7.439 6.8-9.268 16.235l-1.158 5.974v10.748l1.277 5.092 1.277 5.09-.608.609c-.333.333-1.687.751-3.006.929l-2.399.322-1.844-1.09c-1.013-.599-2.283-2.016-2.82-3.148l-.978-2.06-.299-4.834-.299-4.834 2.533-8.061 2.533-8.062.288-4.777.289-4.778-1.266-1.599c-1.444-1.824-4.864-3.156-6.802-2.65-.721.19-1.876 1.225-2.566 2.301l-1.254 1.958-5.017.714c-2.758.392-6.627 1.392-8.598 2.22l-3.583 1.507-6.048.014-6.047.014-.609-.746c-.334-.41-1.185-4.643-1.89-9.406C126.721 4.26 124.71 0 119.317 0H117.9l-.374 1.702Zm-99.744 8.696c-2.576 1.146-8.582 7.48-11.214 11.827C3.854 26.705 1.725 33.18.732 39.969L0 44.978l.366 5.13c.967 13.56 6.411 24.3 14.024 27.668L17.156 79h7.865l3.248-1.63c4-2.01 7.596-4.868 11.97-9.513l3.347-3.556 2.059 1.57c2.904 2.215 6.022 3.399 8.952 3.399h2.518l2.588-1.253c1.424-.689 4.177-2.842 6.12-4.784l3.532-3.532 1.525-3.128c.838-1.72 1.8-4.589 2.136-6.375l.611-3.248-.649-3.578c-1.214-6.699-5.83-13.392-11.088-16.078-2.482-1.268-11.77-4.005-13.59-4.005-1.845 0-2.29.44-8.193 8.12-5.387 7.007-6.5 9.033-6.5 11.822v2.086l1.402 1.631 1.403 1.631 1.881-1.34 1.882-1.34v.862c0 3.4-5.593 12.016-11.186 17.234-1.643 1.532-4.413 3.508-6.154 4.39l-3.167 1.605-2.074-.336c-1.14-.185-2.712-.936-3.493-1.67l-1.418-1.333-1.244-3.915-1.243-3.916-.317-6.933-.316-6.933.995-4.474c.547-2.46 1.916-6.395 3.042-8.744l2.046-4.27 2.86-3.06c1.572-1.684 4.269-3.86 5.994-4.834l3.134-1.771v-1.9c0-2.456-1.438-4.469-3.94-5.514-2.441-1.02-3.6-1.018-5.912.011Zm42.392 24.936c2.195 1.727 3.86 5.548 3.86 8.855v2.688l-1.153 2.541c-.635 1.398-1.863 3.473-2.73 4.61-1.831 2.4-6.542 5.688-8.15 5.688h-1.107l-.622-1.637c-.821-2.16-.37-4.27 2.14-10.015 1.145-2.623 2.534-6.853 3.086-9.398l1.004-4.628h1.011c.557 0 1.755.583 2.661 1.296Zm96.446 9.536v5.457l-3.343 3.808c-1.839 2.094-4.516 4.495-5.95 5.335l-2.608 1.528-1.364-.193-1.364-.194-.795-2.388-.795-2.389.675-3.078c.785-3.578 3.541-8.019 6.212-10.009 1.905-1.419 6.401-3.203 8.287-3.288l1.045-.047v5.458Zm-22.393-2.472c-1.091 2.11-1.856 2.276-2.413.522l-.402-1.269.81-.513c.445-.282 1.287-.517 1.871-.523l1.06-.009-.926 1.792Z" clip-rule="evenodd"/><path fill="#000" fill-rule="evenodd" d="M117.526 1.702c-.385 1.75.275 8.242 1.798 17.705.475 2.956.866 6.652.867 8.211l.003 2.837h-8.573l-3.626-3.831c-1.994-2.108-4.543-4.287-5.665-4.843l-2.038-1.013-3.092.257-3.092.256-1.76 1.253-1.759 1.253-2.94 5.353-2.94 5.353-2.892-4.404-2.892-4.405-1.504-.377c-.828-.208-2.157-.08-2.954.282l-1.449.66v2.094c0 1.152.674 4.42 1.499 7.263l1.498 5.17.625 10.515c.344 5.783.901 11.942 1.239 13.685l.613 3.171 1.804 2.054 1.803 2.055h4.057l1.102-1.103 1.103-1.103.419-6.212c.55-8.174 2.253-16.383 4.958-23.915l2.198-6.12 1.689-1.823 1.688-1.824 1.741 2.019 1.74 2.018.631 2.759c.347 1.517 1.177 9.342 1.844 17.39.667 8.046 1.36 15.285 1.54 16.086.513 2.288 2.421 4.576 4.729 5.671l2.118 1.004 1.166-.37 1.165-.37.674-2.25.675-2.252-.295-7.416c-.162-4.08-.862-11.044-1.555-15.478-.694-4.434-1.262-8.136-1.262-8.226-.001-.09.725-.44 1.613-.778l1.616-.614 2.266.383 2.266.383v2.85c0 1.566.409 6.926.909 11.91l.908 9.061.945 2.36c.519 1.3 1.867 3.171 2.993 4.16l2.05 1.8h3.454l1.238-1.574c.68-.865 1.238-1.926 1.238-2.356v-.784l3.345 1.76 3.344 1.76 2.777-.014 2.775-.013 2.671-1.21c1.468-.667 3.519-1.86 4.557-2.652 1.037-.79 2.144-1.516 2.458-1.611.315-.096 2.179 1.842 4.143 4.305l3.571 4.479 3.136 1.702 3.137 1.703 3.469.314 3.469.315L182 76.81c3.956-1.81 5.965-1.928 10.989-.64l3.621.927 3.385-.626c1.862-.344 4.535-1.3 5.942-2.124 5.052-2.96 11.285-10.83 13.655-17.242.501-1.356 1.82-4.884 2.931-7.84l2.02-5.374.673 3.284c.371 1.807.924 5.744 1.229 8.75l.554 5.463 1.185 2.3c1.235 2.396 4.522 5.823 6.066 6.322.493.16 1.631-.08 2.53-.534l1.633-.825.365-1.456.366-1.457-1.53-6.445c-1.56-6.578-4.368-25.644-3.852-26.16.156-.157 6.981-.69 15.166-1.184 8.185-.495 15.984-1.044 17.332-1.22 5.497-.72 7.417-6.329 2.771-8.095l-1.573-.598-16.753-.116c-9.214-.064-17.294.082-17.954.323l-1.201.439-1.103-4.921c-1.42-6.335-3.667-12.296-5.283-14.017L223.89 2.39h-5.192l-.647 1.42-.647 1.42.594 5.895c.531 5.264.257 12.879-.487 13.55-.154.139-3.639.85-7.744 1.579-4.106.729-8.442 1.571-9.635 1.872l-2.172.547-.317 1.216c-.41 1.566.466 4.607 1.728 6.001.542.6 1.843 1.372 2.89 1.718l1.903.628 5.636-1.155c3.099-.636 5.756-1.035 5.904-.887.575.576-3.23 10.844-6.268 16.913l-3.195 6.382-3.229 3.054-3.229 3.054-2.45.66-2.45.66-1.665-.41c-2.823-.696-4.175-1.947-5.593-5.177l-1.365-3.106.062-5.375.061-5.374 1.233-5.606 1.233-5.605 1.532-2.009c.843-1.105 2.289-2.4 3.213-2.878l1.68-.869.38-2.374c.887-5.55-2.499-7.553-8.305-4.916-4.802 2.181-7.439 6.8-9.268 16.235l-1.158 5.974v10.748l1.277 5.092 1.277 5.09-.608.609c-.333.333-1.687.751-3.006.929l-2.399.322-1.844-1.09c-1.013-.599-2.283-2.016-2.82-3.148l-.978-2.06-.299-4.834-.299-4.834 2.533-8.061 2.533-8.062.288-4.777.289-4.778-1.266-1.599c-1.444-1.824-4.864-3.156-6.802-2.65-.721.19-1.876 1.225-2.566 2.301l-1.254 1.958-5.017.714c-2.758.392-6.627 1.392-8.598 2.22l-3.583 1.507-6.048.014-6.047.014-.609-.746c-.334-.41-1.185-4.643-1.89-9.406C126.721 4.26 124.71 0 119.317 0H117.9l-.374 1.702Zm-99.744 8.696c-2.576 1.146-8.582 7.48-11.214 11.827C3.854 26.705 1.725 33.18.732 39.969L0 44.978l.366 5.13c.967 13.56 6.411 24.3 14.024 27.668L17.156 79h7.865l3.248-1.63c4-2.01 7.596-4.868 11.97-9.513l3.347-3.556 2.059 1.57c2.904 2.215 6.022 3.399 8.952 3.399h2.518l2.588-1.253c1.424-.689 4.177-2.842 6.12-4.784l3.532-3.532 1.525-3.128c.838-1.72 1.8-4.589 2.136-6.375l.611-3.248-.649-3.578c-1.214-6.699-5.83-13.392-11.088-16.078-2.482-1.268-11.77-4.005-13.59-4.005-1.845 0-2.29.44-8.193 8.12-5.387 7.007-6.5 9.033-6.5 11.822v2.086l1.402 1.631 1.403 1.631 1.881-1.34 1.882-1.34v.862c0 3.4-5.593 12.016-11.186 17.234-1.643 1.532-4.413 3.508-6.154 4.39l-3.167 1.605-2.074-.336c-1.14-.185-2.712-.936-3.493-1.67l-1.418-1.333-1.244-3.915-1.243-3.916-.317-6.933-.316-6.933.995-4.474c.547-2.46 1.916-6.395 3.042-8.744l2.046-4.27 2.86-3.06c1.572-1.684 4.269-3.86 5.994-4.834l3.134-1.771v-1.9c0-2.456-1.438-4.469-3.94-5.514-2.441-1.02-3.6-1.018-5.912.011Zm42.392 24.936c2.195 1.727 3.86 5.548 3.86 8.855v2.688l-1.153 2.541c-.635 1.398-1.863 3.473-2.73 4.61-1.831 2.4-6.542 5.688-8.15 5.688h-1.107l-.622-1.637c-.821-2.16-.37-4.27 2.14-10.015 1.145-2.623 2.534-6.853 3.086-9.398l1.004-4.628h1.011c.557 0 1.755.583 2.661 1.296Zm96.446 9.536v5.457l-3.343 3.808c-1.839 2.094-4.516 4.495-5.95 5.335l-2.608 1.528-1.364-.193-1.364-.194-.795-2.388-.795-2.389.675-3.078c.785-3.578 3.541-8.019 6.212-10.009 1.905-1.419 6.401-3.203 8.287-3.288l1.045-.047v5.458Zm-22.393-2.472c-1.091 2.11-1.856 2.276-2.413.522l-.402-1.269.81-.513c.445-.282 1.287-.517 1.871-.523l1.06-.009-.926 1.792Z" clip-rule="evenodd"/><path fill="#000" fill-rule="evenodd" d="M117.526 1.702c-.385 1.75.275 8.242 1.798 17.705.475 2.956.866 6.652.867 8.211l.003 2.837h-8.573l-3.626-3.831c-1.994-2.108-4.543-4.287-5.665-4.843l-2.038-1.013-3.092.257-3.092.256-1.76 1.253-1.759 1.253-2.94 5.353-2.94 5.353-2.892-4.404-2.892-4.405-1.504-.377c-.828-.208-2.157-.08-2.954.282l-1.449.66v2.094c0 1.152.674 4.42 1.499 7.263l1.498 5.17.625 10.515c.344 5.783.901 11.942 1.239 13.685l.613 3.171 1.804 2.054 1.803 2.055h4.057l1.102-1.103 1.103-1.103.419-6.212c.55-8.174 2.253-16.383 4.958-23.915l2.198-6.12 1.689-1.823 1.688-1.824 1.741 2.019 1.74 2.018.631 2.759c.347 1.517 1.177 9.342 1.844 17.39.667 8.046 1.36 15.285 1.54 16.086.513 2.288 2.421 4.576 4.729 5.671l2.118 1.004 1.166-.37 1.165-.37.674-2.25.675-2.252-.295-7.416c-.162-4.08-.862-11.044-1.555-15.478-.694-4.434-1.262-8.136-1.262-8.226-.001-.09.725-.44 1.613-.778l1.616-.614 2.266.383 2.266.383v2.85c0 1.566.409 6.926.909 11.91l.908 9.061.945 2.36c.519 1.3 1.867 3.171 2.993 4.16l2.05 1.8h3.454l1.238-1.574c.68-.865 1.238-1.926 1.238-2.356v-.784l3.345 1.76 3.344 1.76 2.777-.014 2.775-.013 2.671-1.21c1.468-.667 3.519-1.86 4.557-2.652 1.037-.79 2.144-1.516 2.458-1.611.315-.096 2.179 1.842 4.143 4.305l3.571 4.479 3.136 1.702 3.137 1.703 3.469.314 3.469.315L182 76.81c3.956-1.81 5.965-1.928 10.989-.64l3.621.927 3.385-.626c1.862-.344 4.535-1.3 5.942-2.124 5.052-2.96 11.285-10.83 13.655-17.242.501-1.356 1.82-4.884 2.931-7.84l2.02-5.374.673 3.284c.371 1.807.924 5.744 1.229 8.75l.554 5.463 1.185 2.3c1.235 2.396 4.522 5.823 6.066 6.322.493.16 1.631-.08 2.53-.534l1.633-.825.365-1.456.366-1.457-1.53-6.445c-1.56-6.578-4.368-25.644-3.852-26.16.156-.157 6.981-.69 15.166-1.184 8.185-.495 15.984-1.044 17.332-1.22 5.497-.72 7.417-6.329 2.771-8.095l-1.573-.598-16.753-.116c-9.214-.064-17.294.082-17.954.323l-1.201.439-1.103-4.921c-1.42-6.335-3.667-12.296-5.283-14.017L223.89 2.39h-5.192l-.647 1.42-.647 1.42.594 5.895c.531 5.264.257 12.879-.487 13.55-.154.139-3.639.85-7.744 1.579-4.106.729-8.442 1.571-9.635 1.872l-2.172.547-.317 1.216c-.41 1.566.466 4.607 1.728 6.001.542.6 1.843 1.372 2.89 1.718l1.903.628 5.636-1.155c3.099-.636 5.756-1.035 5.904-.887.575.576-3.23 10.844-6.268 16.913l-3.195 6.382-3.229 3.054-3.229 3.054-2.45.66-2.45.66-1.665-.41c-2.823-.696-4.175-1.947-5.593-5.177l-1.365-3.106.062-5.375.061-5.374 1.233-5.606 1.233-5.605 1.532-2.009c.843-1.105 2.289-2.4 3.213-2.878l1.68-.869.38-2.374c.887-5.55-2.499-7.553-8.305-4.916-4.802 2.181-7.439 6.8-9.268 16.235l-1.158 5.974v10.748l1.277 5.092 1.277 5.09-.608.609c-.333.333-1.687.751-3.006.929l-2.399.322-1.844-1.09c-1.013-.599-2.283-2.016-2.82-3.148l-.978-2.06-.299-4.834-.299-4.834 2.533-8.061 2.533-8.062.288-4.777.289-4.778-1.266-1.599c-1.444-1.824-4.864-3.156-6.802-2.65-.721.19-1.876 1.225-2.566 2.301l-1.254 1.958-5.017.714c-2.758.392-6.627 1.392-8.598 2.22l-3.583 1.507-6.048.014-6.047.014-.609-.746c-.334-.41-1.185-4.643-1.89-9.406C126.721 4.26 124.71 0 119.317 0H117.9l-.374 1.702Zm-99.744 8.696c-2.576 1.146-8.582 7.48-11.214 11.827C3.854 26.705 1.725 33.18.732 39.969L0 44.978l.366 5.13c.967 13.56 6.411 24.3 14.024 27.668L17.156 79h7.865l3.248-1.63c4-2.01 7.596-4.868 11.97-9.513l3.347-3.556 2.059 1.57c2.904 2.215 6.022 3.399 8.952 3.399h2.518l2.588-1.253c1.424-.689 4.177-2.842 6.12-4.784l3.532-3.532 1.525-3.128c.838-1.72 1.8-4.589 2.136-6.375l.611-3.248-.649-3.578c-1.214-6.699-5.83-13.392-11.088-16.078-2.482-1.268-11.77-4.005-13.59-4.005-1.845 0-2.29.44-8.193 8.12-5.387 7.007-6.5 9.033-6.5 11.822v2.086l1.402 1.631 1.403 1.631 1.881-1.34 1.882-1.34v.862c0 3.4-5.593 12.016-11.186 17.234-1.643 1.532-4.413 3.508-6.154 4.39l-3.167 1.605-2.074-.336c-1.14-.185-2.712-.936-3.493-1.67l-1.418-1.333-1.244-3.915-1.243-3.916-.317-6.933-.316-6.933.995-4.474c.547-2.46 1.916-6.395 3.042-8.744l2.046-4.27 2.86-3.06c1.572-1.684 4.269-3.86 5.994-4.834l3.134-1.771v-1.9c0-2.456-1.438-4.469-3.94-5.514-2.441-1.02-3.6-1.018-5.912.011Zm42.392 24.936c2.195 1.727 3.86 5.548 3.86 8.855v2.688l-1.153 2.541c-.635 1.398-1.863 3.473-2.73 4.61-1.831 2.4-6.542 5.688-8.15 5.688h-1.107l-.622-1.637c-.821-2.16-.37-4.27 2.14-10.015 1.145-2.623 2.534-6.853 3.086-9.398l1.004-4.628h1.011c.557 0 1.755.583 2.661 1.296Zm96.446 9.536v5.457l-3.343 3.808c-1.839 2.094-4.516 4.495-5.95 5.335l-2.608 1.528-1.364-.193-1.364-.194-.795-2.388-.795-2.389.675-3.078c.785-3.578 3.541-8.019 6.212-10.009 1.905-1.419 6.401-3.203 8.287-3.288l1.045-.047v5.458Zm-22.393-2.472c-1.091 2.11-1.856 2.276-2.413.522l-.402-1.269.81-.513c.445-.282 1.287-.517 1.871-.523l1.06-.009-.926 1.792Z" clip-rule="evenodd"/><path fill="#000" fill-rule="evenodd" d="M117.526 1.702c-.385 1.75.275 8.242 1.798 17.705.475 2.956.866 6.652.867 8.211l.003 2.837h-8.573l-3.626-3.831c-1.994-2.108-4.543-4.287-5.665-4.843l-2.038-1.013-3.092.257-3.092.256-1.76 1.253-1.759 1.253-2.94 5.353-2.94 5.353-2.892-4.404-2.892-4.405-1.504-.377c-.828-.208-2.157-.08-2.954.282l-1.449.66v2.094c0 1.152.674 4.42 1.499 7.263l1.498 5.17.625 10.515c.344 5.783.901 11.942 1.239 13.685l.613 3.171 1.804 2.054 1.803 2.055h4.057l1.102-1.103 1.103-1.103.419-6.212c.55-8.174 2.253-16.383 4.958-23.915l2.198-6.12 1.689-1.823 1.688-1.824 1.741 2.019 1.74 2.018.631 2.759c.347 1.517 1.177 9.342 1.844 17.39.667 8.046 1.36 15.285 1.54 16.086.513 2.288 2.421 4.576 4.729 5.671l2.118 1.004 1.166-.37 1.165-.37.674-2.25.675-2.252-.295-7.416c-.162-4.08-.862-11.044-1.555-15.478-.694-4.434-1.262-8.136-1.262-8.226-.001-.09.725-.44 1.613-.778l1.616-.614 2.266.383 2.266.383v2.85c0 1.566.409 6.926.909 11.91l.908 9.061.945 2.36c.519 1.3 1.867 3.171 2.993 4.16l2.05 1.8h3.454l1.238-1.574c.68-.865 1.238-1.926 1.238-2.356v-.784l3.345 1.76 3.344 1.76 2.777-.014 2.775-.013 2.671-1.21c1.468-.667 3.519-1.86 4.557-2.652 1.037-.79 2.144-1.516 2.458-1.611.315-.096 2.179 1.842 4.143 4.305l3.571 4.479 3.136 1.702 3.137 1.703 3.469.314 3.469.315L182 76.81c3.956-1.81 5.965-1.928 10.989-.64l3.621.927 3.385-.626c1.862-.344 4.535-1.3 5.942-2.124 5.052-2.96 11.285-10.83 13.655-17.242.501-1.356 1.82-4.884 2.931-7.84l2.02-5.374.673 3.284c.371 1.807.924 5.744 1.229 8.75l.554 5.463 1.185 2.3c1.235 2.396 4.522 5.823 6.066 6.322.493.16 1.631-.08 2.53-.534l1.633-.825.365-1.456.366-1.457-1.53-6.445c-1.56-6.578-4.368-25.644-3.852-26.16.156-.157 6.981-.69 15.166-1.184 8.185-.495 15.984-1.044 17.332-1.22 5.497-.72 7.417-6.329 2.771-8.095l-1.573-.598-16.753-.116c-9.214-.064-17.294.082-17.954.323l-1.201.439-1.103-4.921c-1.42-6.335-3.667-12.296-5.283-14.017L223.89 2.39h-5.192l-.647 1.42-.647 1.42.594 5.895c.531 5.264.257 12.879-.487 13.55-.154.139-3.639.85-7.744 1.579-4.106.729-8.442 1.571-9.635 1.872l-2.172.547-.317 1.216c-.41 1.566.466 4.607 1.728 6.001.542.6 1.843 1.372 2.89 1.718l1.903.628 5.636-1.155c3.099-.636 5.756-1.035 5.904-.887.575.576-3.23 10.844-6.268 16.913l-3.195 6.382-3.229 3.054-3.229 3.054-2.45.66-2.45.66-1.665-.41c-2.823-.696-4.175-1.947-5.593-5.177l-1.365-3.106.062-5.375.061-5.374 1.233-5.606 1.233-5.605 1.532-2.009c.843-1.105 2.289-2.4 3.213-2.878l1.68-.869.38-2.374c.887-5.55-2.499-7.553-8.305-4.916-4.802 2.181-7.439 6.8-9.268 16.235l-1.158 5.974v10.748l1.277 5.092 1.277 5.09-.608.609c-.333.333-1.687.751-3.006.929l-2.399.322-1.844-1.09c-1.013-.599-2.283-2.016-2.82-3.148l-.978-2.06-.299-4.834-.299-4.834 2.533-8.061 2.533-8.062.288-4.777.289-4.778-1.266-1.599c-1.444-1.824-4.864-3.156-6.802-2.65-.721.19-1.876 1.225-2.566 2.301l-1.254 1.958-5.017.714c-2.758.392-6.627 1.392-8.598 2.22l-3.583 1.507-6.048.014-6.047.014-.609-.746c-.334-.41-1.185-4.643-1.89-9.406C126.721 4.26 124.71 0 119.317 0H117.9l-.374 1.702Zm-99.744 8.696c-2.576 1.146-8.582 7.48-11.214 11.827C3.854 26.705 1.725 33.18.732 39.969L0 44.978l.366 5.13c.967 13.56 6.411 24.3 14.024 27.668L17.156 79h7.865l3.248-1.63c4-2.01 7.596-4.868 11.97-9.513l3.347-3.556 2.059 1.57c2.904 2.215 6.022 3.399 8.952 3.399h2.518l2.588-1.253c1.424-.689 4.177-2.842 6.12-4.784l3.532-3.532 1.525-3.128c.838-1.72 1.8-4.589 2.136-6.375l.611-3.248-.649-3.578c-1.214-6.699-5.83-13.392-11.088-16.078-2.482-1.268-11.77-4.005-13.59-4.005-1.845 0-2.29.44-8.193 8.12-5.387 7.007-6.5 9.033-6.5 11.822v2.086l1.402 1.631 1.403 1.631 1.881-1.34 1.882-1.34v.862c0 3.4-5.593 12.016-11.186 17.234-1.643 1.532-4.413 3.508-6.154 4.39l-3.167 1.605-2.074-.336c-1.14-.185-2.712-.936-3.493-1.67l-1.418-1.333-1.244-3.915-1.243-3.916-.317-6.933-.316-6.933.995-4.474c.547-2.46 1.916-6.395 3.042-8.744l2.046-4.27 2.86-3.06c1.572-1.684 4.269-3.86 5.994-4.834l3.134-1.771v-1.9c0-2.456-1.438-4.469-3.94-5.514-2.441-1.02-3.6-1.018-5.912.011Zm42.392 24.936c2.195 1.727 3.86 5.548 3.86 8.855v2.688l-1.153 2.541c-.635 1.398-1.863 3.473-2.73 4.61-1.831 2.4-6.542 5.688-8.15 5.688h-1.107l-.622-1.637c-.821-2.16-.37-4.27 2.14-10.015 1.145-2.623 2.534-6.853 3.086-9.398l1.004-4.628h1.011c.557 0 1.755.583 2.661 1.296Zm96.446 9.536v5.457l-3.343 3.808c-1.839 2.094-4.516 4.495-5.95 5.335l-2.608 1.528-1.364-.193-1.364-.194-.795-2.388-.795-2.389.675-3.078c.785-3.578 3.541-8.019 6.212-10.009 1.905-1.419 6.401-3.203 8.287-3.288l1.045-.047v5.458Zm-22.393-2.472c-1.091 2.11-1.856 2.276-2.413.522l-.402-1.269.81-.513c.445-.282 1.287-.517 1.871-.523l1.06-.009-.926 1.792Z" clip-rule="evenodd"/></svg>