<svg xmlns="http://www.w3.org/2000/svg" width="300" height="75" fill="none"><path fill="#fff" fill-rule="evenodd" d="M12.29.988c-1.048 1.21-1.183 1.83-.907 4.169.212 1.798.15 3.824-.378 12.454-.12 1.948-.274 8.608-.343 14.799l-.125 11.255-1.593 1.564c-2.613 2.564-7.01 6.525-7.918 7.133-.504.337-.906.797-.99 1.134-.197.783.428 1.863 1.586 2.744.848.644 1.03.7 1.98.601.576-.06 2.227-.492 3.67-.962s2.757-.852 2.918-.85c.683.007.853.387 1.031 2.312.326 3.503.56 5.105.816 5.584.236.441 2.514 1.688 3.084 1.688.143 0 .541-.39.886-.865.759-1.047.776-1.46.283-6.701-.301-3.197-.31-3.75-.055-3.994.34-.328 4.906-2.005 6.756-2.482 3.307-.852 21.134-2.503 21.644-2.004.06.06-.083 1.701-.318 3.648-.546 4.514-.585 8.272-.104 10.105.593 2.26 1.67 4.208 2.996 5.42 1.436 1.312 1.5 1.308 4.755-.306 3.097-1.536 5.029-3.114 14.19-11.592 4.059-3.754 5.441-4.887 6.521-5.342 1.033-.434 4.64-1.32 4.85-1.19.27.167.223.709-.229 2.624-.611 2.594-1.24 6.93-1.288 8.886-.036 1.474.018 1.79.367 2.138 1.004 1.004 2.69.85 3.408-.313.242-.393 1.573-4.167 2.957-8.388 1.384-4.22 2.69-7.918 2.903-8.216.436-.615 2.25-1.359 7.696-3.157 4.662-1.54 4.502-1.51 5.068-.943.37.37.556.975.848 2.767.205 1.26.88 4.684 1.5 7.607.62 2.924 1.128 5.38 1.128 5.457.001.078-.21.172-.467.209-.324.046-.487.228-.527.588-.043.396.297.906 1.419 2.13.811.885 1.735 1.794 2.053 2.02l.577.412 1.079-1.062c1.02-1.004 1.078-1.12 1.077-2.125-.001-.584-.179-1.813-.397-2.73-.217-.917-1.067-4.988-1.889-9.045-1.233-6.089-1.445-7.424-1.218-7.641.335-.32 4.597-1.553 5.371-1.553.306 0 .731.129.946.286.38.277.378.364-.078 3.445-.529 3.57-1.222 12.466-1.302 16.696-.059 3.191.083 3.67 1.426 4.776.903.744 1.563.807 2.498.236.97-.591 1.161-1.482.942-4.386-.219-2.911-.03-4.865 1.434-14.8.583-3.955 1.365-9.279 1.738-11.83.374-2.553.734-4.696.802-4.764.21-.21.557.125.974.941.464.91 4.998 12.641 6.896 17.842 2.465 6.757 4.669 11.29 7.824 16.1 1.789 2.727 2.941 4.045 3.961 4.529.686.326.774.324 1.49-.032 1.352-.673 1.629-1.284 1.567-3.46-.08-2.785 1.372-19.412 2.488-28.497.785-6.39.9-10.986.312-12.497-.546-1.405-1.584-2.908-2.242-3.248-.323-.168-1-.304-1.503-.304-.825 0-.953.069-1.292.699-.343.637-.354.874-.124 2.658.732 5.671.733 5.662-.814 19.154-1.9 16.579-1.717 15.216-2.043 15.216-.431 0-2.298-4.181-4.841-10.839-6.069-15.89-7.568-19.24-10.199-22.797-2.081-2.814-2.392-3.839-1.781-5.871.108-.36-.044-.497-.983-.886-1.898-.787-2.382-.623-3.242 1.102-1.41 2.829-1.888 5.246-2.451 12.398-.185 2.348-.425 4.376-.534 4.507-.123.148-1.449.295-3.492.388-2.669.12-3.432.091-4.021-.155l-.727-.304-.674-3.727c-1.818-10.045-2.87-14.603-3.74-16.203-1.048-1.926-3.167-3.26-5.18-3.26-.93 0-1.306.459-2.655 3.242-1.16 2.396-1.391 2.661-3.74 4.305-.426.297-.57.694-.873 2.397-.922 5.18-1.44 7.44-2.282 9.957-3.59 10.732-3.705 10.996-4.835 11.213-.287.054-.842.027-1.233-.061-.64-.144-.972-.008-3.31 1.356-4.178 2.438-4.7 2.841-14.6 11.264-2.981 2.535-6.196 5.236-7.145 6.002-2.613 2.107-3.173 1.9-3.173-1.173 0-3.517.457-10.463.732-11.124.448-1.078.985-1.272 4.797-1.74 3.068-.377 3.602-.497 4.018-.908.467-.462.47-.486.101-.941-.302-.374-.837-.547-2.668-.864-1.26-.218-2.628-.4-3.04-.403a5.271 5.271 0 0 1-1.408-.236c-.763-.266-.83-.686-.333-2.09.177-.501.873-3.163 1.547-5.914 1.259-5.146 2.769-9.767 6.233-19.072 1.045-2.809 1.901-5.269 1.901-5.467.002-.985-2.468-1.473-3.624-.716-.838.549-4.248 7.578-5.322 10.971-.455 1.437-1.637 5.52-2.628 9.073-3.106 11.15-3.535 12.427-4.3 12.837-.227.121-2.824.25-6.105.301-3.14.05-6.558.186-7.594.304-3.591.406-9.907 1.682-13.833 2.793l-1.824.516.006-1.184.005-1.185L18.6 42.57c1.533-1.635 5.597-5.903 9.03-9.484 9.518-9.93 12.55-13.392 12.951-14.786l.356-1.24c.076-.264-.2-.444-1.2-.782-2.48-.837-2.73-.707-5.98 3.104-4.9 5.746-17.42 19.178-17.875 19.178-.446 0-.58-5.685-.298-12.715.408-10.181.502-18.599.24-21.392l-.232-2.474L14.497.99C13.896.447 13.345.001 13.275 0c-.07-.001-.513.443-.985.988Zm260.993 13.508c-4.722.688-9.085 2.099-16.163 5.226-2.952 1.303-5.447 2.37-5.545 2.37-.098 0-.559.276-1.024.613-1.044.756-1.221 1.434-.802 3.064.306 1.185 1.793 16.508 1.793 18.467 0 1.182-.303 1.904-.944 2.247-.524.28-2.069.387-2.297.16-.078-.078-.367-1.906-.644-4.061-.582-4.54-1.497-9.269-2.261-11.69-.528-1.668-.839-2.161-3.199-5.063-.844-1.037-.879-1.128-.521-1.366 1.035-.69 2.979-2.3 3.086-2.557.206-.498-.421-1.165-1.775-1.887-1.271-.677-1.349-.691-3.096-.562-.986.072-3.153.365-4.815.65-1.662.286-5.508.757-8.546 1.047-16.329 1.56-22.827 3.013-30.64 6.847-2.674 1.312-2.829 1.572-2.008 3.365l.552 1.206 1.154-.12c.635-.065 1.548-.307 2.031-.537.482-.23 3.814-1.282 7.405-2.337 5.744-1.686 6.566-1.88 6.835-1.61.23.23.356 1.238.504 4.041.435 8.217 1.716 18.376 3.031 24.053.212.914.269 1.796.177 2.729l-.136 1.378 1.382 2.766c2.148 4.302 2.817 5.41 3.471 5.748 1.04.538 1.573.4 2.237-.578.904-1.336.925-1.519.328-2.93-2.851-6.738-4.919-17.584-6.115-32.07-.44-5.33-.403-6.002.35-6.383.544-.276 8.712-1.087 10.942-1.087 1.138 0 1.235.039 1.443.574.123.315.273 1.095.333 1.733.123 1.296.014 1.577-1.541 3.98-1.145 1.77-3.111 5.858-3.994 8.304-2.431 6.735-3.192 12.375-2.138 15.841 1.611 5.302 5.943 9.614 10.808 10.76 2.045.481 5.667.298 7.814-.396 3.387-1.095 5.345-3.004 6.329-6.17.165-.53.402-2.37.528-4.09.139-1.91.339-3.304.513-3.584.374-.6 2.462-1.284 2.962-.97.412.258.594 1.931.637 5.824.032 3.02.531 8.467.978 10.68.623 3.086 1.347 5.004 2.276 6.03.761.84.929.933 1.46.8.33-.084.958-.51 1.396-.947.957-.958.952-.87.389-6.485a581.18 581.18 0 0 1-.833-9.367 898.114 898.114 0 0 0-.524-6.33c-.158-1.627.219-2.118 1.916-2.494 2.016-.447 5.426-1.176 13.396-2.863 6.94-1.468 15.951-3.46 22.055-4.874 1.755-.407 3.229-.74 3.275-.74.229 0 1.558-1.328 1.558-1.556 0-.145-.203-.522-.452-.838l-.452-.575-2.831.111c-3.826.15-15.602 2.125-30.913 5.182-5.686 1.136-7.514 1.432-7.732 1.25-.194-.16-.329-.989-.421-2.582-.074-1.29-.274-4.363-.443-6.828-.6-8.751-.597-8.574-.178-9.38.305-.586.748-.908 2.256-1.64 3.438-1.67 13.278-4.82 17.404-5.573 2.768-.505 8.265-.495 11.464.02 2.705.436 2.999.446 3.81.13l.579-.226-.409-.801c-.379-.744-.588-.872-2.898-1.77-1.37-.532-3.311-1.11-4.314-1.286-2.246-.391-7.547-.388-10.253.007ZM156.72 18.809c-2.584 3.5-4.084 6.732-5.537 11.933-1.173 4.199-1.901 8.286-2.414 13.555l-.244 2.508.883 3.85c1.599 6.967 2.278 8.537 4.785 11.058 3.493 3.512 6.976 4.02 10.061 1.468 2.28-1.886 3.353-3.539 9.138-14.084 3.381-6.163 3.875-7.38 3.524-8.683-.419-1.556-3.162-3.642-5.614-4.268-3.398-.867-7.313 1.11-9.465 4.782-.482.823-.527 1.032-.313 1.433.565 1.062 1.56 2.226 1.909 2.234.204.005 1.146-.721 2.092-1.613 1.89-1.78 4.055-3.01 6.022-3.423 1.364-.286 1.831-.147 1.831.543 0 .493-2.643 5.03-7.602 13.047-4.235 6.847-4.787 7.501-6.323 7.503-1.684.002-4.206-3.671-5.294-7.711-.421-1.562-.478-2.253-.477-5.837.001-4.491.35-7.71 1.37-12.641 1.115-5.385 2.968-9.92 5.7-13.95.754-1.112 1.371-2.18 1.371-2.373 0-.794-1.453-1.676-2.76-1.676h-.911l-1.732 2.345ZM96.242 26.99c.926 4.7 1.726 8.796 1.778 9.1.128.752-.317.94-5.34 2.24-4.412 1.144-4.922 1.22-5.096.767-.143-.373 1.155-6.862 2.23-11.143.697-2.78 1.06-3.757 2.49-6.68 1.438-2.939 1.717-3.382 1.965-3.127.166.17 1.01 3.958 1.973 8.843Zm90.713-3.7c-1.81.979-8.918 7.673-9.682 9.12-.612 1.16-.607 3.224.011 4.4.247.47 1.115 1.472 1.929 2.225 1.763 1.632 4.01 2.799 8.131 4.222 9.301 3.213 14.821 5.997 17.916 9.037 2.332 2.292 3.268 5.529 2.431 8.408-.939 3.232-5.078 6.595-9.798 7.963-2.246.651-5.452 1.213-6.398 1.122l-.701-.067-.599-2.397a24.125 24.125 0 0 1-.708-4.709c-.103-2.197-.071-2.449.665-5.095.743-2.673.76-2.811.442-3.479-.383-.803-.833-1.045-1.269-.683-.546.453-2.793 5.27-3.257 6.983-.517 1.906-.598 5.296-.174 7.343.704 3.41 3.255 5.985 6.189 6.248 3.353.302 10.205-1.972 13.91-4.616 5.59-3.989 7.873-9.864 5.589-14.381-2.384-4.714-5.999-7.983-12.308-11.135-2.331-1.164-4.64-2.085-10.764-4.293-4.674-1.685-5.913-2.29-6.54-3.189-1.113-1.597-.773-2.471 2.107-5.418 2.605-2.666 4.205-3.84 5.778-4.244 1.957-.502 2.671-2.015 1.397-2.96-1.493-1.109-2.77-1.229-4.297-.404Zm52.186 4.15c.598.204 1.368.699 1.878 1.21 2.32 2.32 3.221 6.555 3.226 15.156.002 3.876 0 3.896-.504 4.292-.278.219-1.929.804-3.668 1.301-4.273 1.22-4.676 1.617-3.485 3.437.904 1.38 1.359 1.515 3.638 1.079 2.448-.47 3.251-.465 3.106.016-.06.2-.303 1.35-.54 2.553-.53 2.69-1.269 4.233-2.465 5.145-1.672 1.275-4.438 1.669-7.016.997-4.761-1.24-7.392-5.267-7.143-10.936.083-1.906.247-2.688 1.273-6.066 1.729-5.692 2.464-7.376 4.723-10.817 1.388-2.114 5.625-7.713 5.837-7.713.07 0 .583.156 1.14.346Z" clip-rule="evenodd"/></svg>