<svg xmlns="http://www.w3.org/2000/svg" width="303" height="78" fill="none"><path fill="#000" fill-rule="evenodd" d="M206.952 1.723c-5.486 4.957-3.443 14.03 3.159 14.03 1.18 0 1.286-.171 1.296-2.1.006-1.155.426-3.016.934-4.135 1.996-4.394 1.709-7.898-.736-9.013-1.909-.87-2.519-.71-4.653 1.218ZM77.637 1.655c-.572.4-1.4 1.63-1.842 2.734-1.09 2.722-.468 12.207 1.925 29.402 1.522 10.941 1.702 13.141 1.209 14.815-.552 1.87-2.955 5.832-3.889 6.409-.561.347-4.484-7.28-6.164-11.983-.71-1.985-1.953-7.322-2.764-11.861-1.301-7.288-1.622-8.382-2.746-9.364-1.538-1.343-6.132-1.596-7.132-.391-.328.396-1.55 6.122-2.716 12.725-1.165 6.603-2.407 13.34-2.76 14.97l-.643 2.965-.643-2.718c-1.084-4.589-1.656-10.32-1.656-16.61v-6.012l-1.66-2.414c-.914-1.328-1.82-2.914-2.013-3.523-.194-.61-1.281-1.583-2.417-2.164-6.93-3.539-21.429.382-29.74 8.044-3.384 3.12-3.463 6.548-.262 11.38 1.575 2.379 3.786 4.058 15.583 11.837 4.077 2.69 8.191 5.545 9.143 6.346l1.73 1.457-1.744.732c-.958.403-3.85.965-6.424 1.25-8.148.902-14.785-.71-19.173-4.654-2.2-1.978-2.454-2.43-2.678-4.763-.202-2.098-.536-2.835-1.801-3.965-.855-.764-1.861-1.389-2.236-1.389-1.035 0-3.653 2.654-4.006 4.06-.79 3.142 2.484 8.698 6.925 11.753 5.64 3.88 11.976 5.488 21.994 5.58 7.104.065 10.896-.609 14.88-2.64l2.033-1.038 1.798 1.44c3.604 2.889 5.9 3.34 8.116 1.597 1.402-1.102 1.705-2.209 3.332-12.157.573-3.504 1.147-6.692 1.277-7.084.13-.392 1.2 1.655 2.38 4.55 2.57 6.308 4.803 9.497 8.37 11.953 3.878 2.671 5.836 2.79 9.156.555 2.412-1.623 2.76-1.726 3.712-1.102 1.745 1.143 3.88 1.384 5.36.605 1.305-.687 1.369-.663 1.676.615.887 3.694 3.898 7.337 7.205 8.716 1.01.422 3.235.765 4.942.762 5.237-.008 9.298-3.038 13.102-9.775l1.476-2.614.342 3.34c.188 1.837.739 4.237 1.224 5.332 2.982 6.743 13.141 8.706 22.233 4.296 3.052-1.48 3.834-2.461 4.302-5.396l.336-2.102 1.321 1.771c1.662 2.23 5.061 4.537 7.301 4.957 2.788.523 8.14-.072 10.656-1.185 3.18-1.407 7.448-5.525 10.289-9.928l2.355-3.65.503 1.92c.278 1.055.657 2.586.844 3.402.702 3.07 4.156 6.177 6.865 6.177 1.183 0 2.734-1.844 2.734-3.252 0-.7-.713-3.203-1.584-5.56-1.476-3.991-1.585-4.722-1.601-10.709-.017-5.984.08-6.66 1.412-9.864 1.692-4.07 3.803-7.78 4.573-8.036.348-.116.773 1.383 1.154 4.067.705 4.964 1.96 6.929 4.763 7.454 1.115.21 1.892.704 2.167 1.376.235.578 1.121 6.165 1.969 12.417.848 6.251 1.766 12.226 2.039 13.276.646 2.486 2.27 4.06 4.927 4.776 2.038.548 2.195.513 3.269-.735 1.525-1.773 1.453-3.318-.632-13.611-2.174-10.734-3.176-17.25-3.179-20.682-.005-4.47-1.891-6.993-5.226-6.993-.825 0-1.407.402-1.786 1.235-.31.68-.717 1.236-.905 1.236-.188 0-.47-1.982-.627-4.405-.438-6.752-2.363-9.433-6.777-9.433-2.465 0-4.193.908-8.11 4.259-1.771 1.515-1.981 1.58-2.549.803-.798-1.09-4.431-1.058-5.539.05-.579.579-.887 2.324-1.165 6.61-.794 12.239-5.099 22.686-11.427 27.734-7.376 5.883-11.638 4.96-11.027-2.39.148-1.768.718-4.836 1.27-6.82 1.175-4.227 6.559-15.218 9.062-18.497 4.67-6.118 4.357-9.772-.839-9.772-2.586 0-4.011 1.578-8.696 9.632-4.412 7.584-6.728 13.159-7.955 19.146-.501 2.444-.992 4.526-1.092 4.625-.101.1-1.28-1.638-2.622-3.864-2.092-3.47-5.738-8.407-10.584-14.333l-1.225-1.498 2.279-2.064c2.164-1.958 5.021-3.242 7.213-3.242.977 0 1.585-1.175 1.6-3.09.019-2.38-4.781-3.889-8.987-2.824-2.846.72-9.815 5.752-10.4 7.51-.85 2.55.717 6.245 4.375 10.32 6.22 6.928 10.969 14.821 11.442 19.015.21 1.865.059 2.315-1.211 3.585-1.013 1.012-2.32 1.632-4.317 2.046-3.735.776-5.978.015-7.263-2.465-1.042-2.01-1.163-3.415-.705-8.152.293-3.027.203-3.668-.718-5.13l-1.054-1.673-1.697 1.645-1.697 1.645-.007-3.433c-.021-9.745-4.487-17.486-12.159-21.076-5.675-2.655-11.48-1.965-14.977 1.782-.66.705-1.346 1.283-1.525 1.283-.18 0-.701-1.343-1.157-2.985-.583-2.096-1.426-3.63-2.83-5.154-1.87-2.029-2.051-2.488-2.754-7.024-.49-3.155-.652-6.376-.466-9.207.22-3.349.115-4.687-.457-5.792-1.24-2.4-3.523-3.116-5.506-1.727Zm132.77 17.675c-1.835.96-1.854 2.883-.049 4.94 1.963 2.236 3.615 5.629 5.193 10.672 2.133 6.81 2.792 11.953 3.24 25.289.234 6.93.643 13.158.91 13.837.826 2.102 2.814 3.553 5.243 3.827 2.082.234 2.279.157 2.748-1.078.279-.732.506-1.956.506-2.72 0-1.347.067-1.382 2.14-1.149l2.141.241 3.296-4.221c1.813-2.321 3.296-4.403 3.297-4.626.001-.223.853-2.06 1.895-4.084 1.912-3.714 3.046-4.87 3.046-3.102 0 1.24 5.554 6.935 8.971 9.201 5.005 3.32 7.623 3.966 15.986 3.947 6.437-.014 8.063-.19 12.355-1.336 6.665-1.78 15.326-6.1 17.963-8.96 2.326-2.524 3.85-6.796 3.111-8.726-.589-1.54-1.971-2.754-3.6-3.161-1.172-.292-1.497-.04-3.153 2.456-1.015 1.53-2.541 3.302-3.389 3.94-5.947 4.462-20.278 8.7-27.063 8.003-3.625-.372-7.668-1.906-9.825-3.728-1.431-1.208-1.63-1.602-1.185-2.353.833-1.407 6.834-5.364 12.632-8.33 5.653-2.892 7.607-4.68 8.124-7.435.765-4.078-3.682-10.064-8.935-12.03-6.127-2.292-14.477-.59-18.409 3.754l-2.101 2.32-1.359-.982c-2.059-1.489-6.884-3.157-9.128-3.157-2.803 0-5.018 1.547-7.488 5.229l-2.104 3.136-1.087-3.318c-1.525-4.655-6.602-14.463-8.045-15.54-1.61-1.202-4.351-1.554-5.877-.756ZM38.439 24.433c.265.698.49 3.644.5 6.549.016 5.146.505 11.928 1.248 17.354l.367 2.684-1.522-.955a2107.06 2107.06 0 0 0-8.707-5.365c-7.142-4.383-11.695-7.88-12.696-9.75-.637-1.191-.026-2.246 3.01-5.193 2.56-2.483 6.26-4.422 10.746-5.632 4.884-1.318 6.462-1.248 7.054.308Zm224.784 10.808c1.835.949 2.616 1.963 2.248 2.921-.166.435-2.227 1.83-4.579 3.1-2.353 1.271-5.221 2.855-6.374 3.519l-2.097 1.208.305-1.651c.735-3.985 3.469-8.334 5.866-9.332 1.51-.628 3.12-.547 4.631.235ZM105.75 37.515c4.221 3.48 6.36 11.483 4.646 17.381-1.441 4.956-7.643 11.834-9.892 10.97-1.202-.46-2.527-3.335-3.506-7.612-1.385-6.043-1.436-6.152-3.015-6.44-1.263-.231-1.432-.462-1.368-1.865.113-2.43 3.194-8.426 5.827-11.34 2.865-3.17 4.494-3.413 7.308-1.094Zm130.842 4.51c.007 1.175-2.565 7.61-6.092 15.24-.969 2.097-1.262 2.436-1.281 1.483-.067-3.284 3.202-13.7 5.545-17.672 1.086-1.841 1.815-1.463 1.828.949Z" clip-rule="evenodd"/><path fill="#000" fill-rule="evenodd" d="M206.952 1.723c-5.486 4.957-3.443 14.03 3.159 14.03 1.18 0 1.286-.171 1.296-2.1.006-1.155.426-3.016.934-4.135 1.996-4.394 1.709-7.898-.736-9.013-1.909-.87-2.519-.71-4.653 1.218ZM77.637 1.655c-.572.4-1.4 1.63-1.842 2.734-1.09 2.722-.468 12.207 1.925 29.402 1.522 10.941 1.702 13.141 1.209 14.815-.552 1.87-2.955 5.832-3.889 6.409-.561.347-4.484-7.28-6.164-11.983-.71-1.985-1.953-7.322-2.764-11.861-1.301-7.288-1.622-8.382-2.746-9.364-1.538-1.343-6.132-1.596-7.132-.391-.328.396-1.55 6.122-2.716 12.725-1.165 6.603-2.407 13.34-2.76 14.97l-.643 2.965-.643-2.718c-1.084-4.589-1.656-10.32-1.656-16.61v-6.012l-1.66-2.414c-.914-1.328-1.82-2.914-2.013-3.523-.194-.61-1.281-1.583-2.417-2.164-6.93-3.539-21.429.382-29.74 8.044-3.384 3.12-3.463 6.548-.262 11.38 1.575 2.379 3.786 4.058 15.583 11.837 4.077 2.69 8.191 5.545 9.143 6.346l1.73 1.457-1.744.732c-.958.403-3.85.965-6.424 1.25-8.148.902-14.785-.71-19.173-4.654-2.2-1.978-2.454-2.43-2.678-4.763-.202-2.098-.536-2.835-1.801-3.965-.855-.764-1.861-1.389-2.236-1.389-1.035 0-3.653 2.654-4.006 4.06-.79 3.142 2.484 8.698 6.925 11.753 5.64 3.88 11.976 5.488 21.994 5.58 7.104.065 10.896-.609 14.88-2.64l2.033-1.038 1.798 1.44c3.604 2.889 5.9 3.34 8.116 1.597 1.402-1.102 1.705-2.209 3.332-12.157.573-3.504 1.147-6.692 1.277-7.084.13-.392 1.2 1.655 2.38 4.55 2.57 6.308 4.803 9.497 8.37 11.953 3.878 2.671 5.836 2.79 9.156.555 2.412-1.623 2.76-1.726 3.712-1.102 1.745 1.143 3.88 1.384 5.36.605 1.305-.687 1.369-.663 1.676.615.887 3.694 3.898 7.337 7.205 8.716 1.01.422 3.235.765 4.942.762 5.237-.008 9.298-3.038 13.102-9.775l1.476-2.614.342 3.34c.188 1.837.739 4.237 1.224 5.332 2.982 6.743 13.141 8.706 22.233 4.296 3.052-1.48 3.834-2.461 4.302-5.396l.336-2.102 1.321 1.771c1.662 2.23 5.061 4.537 7.301 4.957 2.788.523 8.14-.072 10.656-1.185 3.18-1.407 7.448-5.525 10.289-9.928l2.355-3.65.503 1.92c.278 1.055.657 2.586.844 3.402.702 3.07 4.156 6.177 6.865 6.177 1.183 0 2.734-1.844 2.734-3.252 0-.7-.713-3.203-1.584-5.56-1.476-3.991-1.585-4.722-1.601-10.709-.017-5.984.08-6.66 1.412-9.864 1.692-4.07 3.803-7.78 4.573-8.036.348-.116.773 1.383 1.154 4.067.705 4.964 1.96 6.929 4.763 7.454 1.115.21 1.892.704 2.167 1.376.235.578 1.121 6.165 1.969 12.417.848 6.251 1.766 12.226 2.039 13.276.646 2.486 2.27 4.06 4.927 4.776 2.038.548 2.195.513 3.269-.735 1.525-1.773 1.453-3.318-.632-13.611-2.174-10.734-3.176-17.25-3.179-20.682-.005-4.47-1.891-6.993-5.226-6.993-.825 0-1.407.402-1.786 1.235-.31.68-.717 1.236-.905 1.236-.188 0-.47-1.982-.627-4.405-.438-6.752-2.363-9.433-6.777-9.433-2.465 0-4.193.908-8.11 4.259-1.771 1.515-1.981 1.58-2.549.803-.798-1.09-4.431-1.058-5.539.05-.579.579-.887 2.324-1.165 6.61-.794 12.239-5.099 22.686-11.427 27.734-7.376 5.883-11.638 4.96-11.027-2.39.148-1.768.718-4.836 1.27-6.82 1.175-4.227 6.559-15.218 9.062-18.497 4.67-6.118 4.357-9.772-.839-9.772-2.586 0-4.011 1.578-8.696 9.632-4.412 7.584-6.728 13.159-7.955 19.146-.501 2.444-.992 4.526-1.092 4.625-.101.1-1.28-1.638-2.622-3.864-2.092-3.47-5.738-8.407-10.584-14.333l-1.225-1.498 2.279-2.064c2.164-1.958 5.021-3.242 7.213-3.242.977 0 1.585-1.175 1.6-3.09.019-2.38-4.781-3.889-8.987-2.824-2.846.72-9.815 5.752-10.4 7.51-.85 2.55.717 6.245 4.375 10.32 6.22 6.928 10.969 14.821 11.442 19.015.21 1.865.059 2.315-1.211 3.585-1.013 1.012-2.32 1.632-4.317 2.046-3.735.776-5.978.015-7.263-2.465-1.042-2.01-1.163-3.415-.705-8.152.293-3.027.203-3.668-.718-5.13l-1.054-1.673-1.697 1.645-1.697 1.645-.007-3.433c-.021-9.745-4.487-17.486-12.159-21.076-5.675-2.655-11.48-1.965-14.977 1.782-.66.705-1.346 1.283-1.525 1.283-.18 0-.701-1.343-1.157-2.985-.583-2.096-1.426-3.63-2.83-5.154-1.87-2.029-2.051-2.488-2.754-7.024-.49-3.155-.652-6.376-.466-9.207.22-3.349.115-4.687-.457-5.792-1.24-2.4-3.523-3.116-5.506-1.727Zm132.77 17.675c-1.835.96-1.854 2.883-.049 4.94 1.963 2.236 3.615 5.629 5.193 10.672 2.133 6.81 2.792 11.953 3.24 25.289.234 6.93.643 13.158.91 13.837.826 2.102 2.814 3.553 5.243 3.827 2.082.234 2.279.157 2.748-1.078.279-.732.506-1.956.506-2.72 0-1.347.067-1.382 2.14-1.149l2.141.241 3.296-4.221c1.813-2.321 3.296-4.403 3.297-4.626.001-.223.853-2.06 1.895-4.084 1.912-3.714 3.046-4.87 3.046-3.102 0 1.24 5.554 6.935 8.971 9.201 5.005 3.32 7.623 3.966 15.986 3.947 6.437-.014 8.063-.19 12.355-1.336 6.665-1.78 15.326-6.1 17.963-8.96 2.326-2.524 3.85-6.796 3.111-8.726-.589-1.54-1.971-2.754-3.6-3.161-1.172-.292-1.497-.04-3.153 2.456-1.015 1.53-2.541 3.302-3.389 3.94-5.947 4.462-20.278 8.7-27.063 8.003-3.625-.372-7.668-1.906-9.825-3.728-1.431-1.208-1.63-1.602-1.185-2.353.833-1.407 6.834-5.364 12.632-8.33 5.653-2.892 7.607-4.68 8.124-7.435.765-4.078-3.682-10.064-8.935-12.03-6.127-2.292-14.477-.59-18.409 3.754l-2.101 2.32-1.359-.982c-2.059-1.489-6.884-3.157-9.128-3.157-2.803 0-5.018 1.547-7.488 5.229l-2.104 3.136-1.087-3.318c-1.525-4.655-6.602-14.463-8.045-15.54-1.61-1.202-4.351-1.554-5.877-.756ZM38.439 24.433c.265.698.49 3.644.5 6.549.016 5.146.505 11.928 1.248 17.354l.367 2.684-1.522-.955a2107.06 2107.06 0 0 0-8.707-5.365c-7.142-4.383-11.695-7.88-12.696-9.75-.637-1.191-.026-2.246 3.01-5.193 2.56-2.483 6.26-4.422 10.746-5.632 4.884-1.318 6.462-1.248 7.054.308Zm224.784 10.808c1.835.949 2.616 1.963 2.248 2.921-.166.435-2.227 1.83-4.579 3.1-2.353 1.271-5.221 2.855-6.374 3.519l-2.097 1.208.305-1.651c.735-3.985 3.469-8.334 5.866-9.332 1.51-.628 3.12-.547 4.631.235ZM105.75 37.515c4.221 3.48 6.36 11.483 4.646 17.381-1.441 4.956-7.643 11.834-9.892 10.97-1.202-.46-2.527-3.335-3.506-7.612-1.385-6.043-1.436-6.152-3.015-6.44-1.263-.231-1.432-.462-1.368-1.865.113-2.43 3.194-8.426 5.827-11.34 2.865-3.17 4.494-3.413 7.308-1.094Zm130.842 4.51c.007 1.175-2.565 7.61-6.092 15.24-.969 2.097-1.262 2.436-1.281 1.483-.067-3.284 3.202-13.7 5.545-17.672 1.086-1.841 1.815-1.463 1.828.949Z" clip-rule="evenodd"/><path fill="#000" fill-rule="evenodd" d="M206.952 1.723c-5.486 4.957-3.443 14.03 3.159 14.03 1.18 0 1.286-.171 1.296-2.1.006-1.155.426-3.016.934-4.135 1.996-4.394 1.709-7.898-.736-9.013-1.909-.87-2.519-.71-4.653 1.218ZM77.637 1.655c-.572.4-1.4 1.63-1.842 2.734-1.09 2.722-.468 12.207 1.925 29.402 1.522 10.941 1.702 13.141 1.209 14.815-.552 1.87-2.955 5.832-3.889 6.409-.561.347-4.484-7.28-6.164-11.983-.71-1.985-1.953-7.322-2.764-11.861-1.301-7.288-1.622-8.382-2.746-9.364-1.538-1.343-6.132-1.596-7.132-.391-.328.396-1.55 6.122-2.716 12.725-1.165 6.603-2.407 13.34-2.76 14.97l-.643 2.965-.643-2.718c-1.084-4.589-1.656-10.32-1.656-16.61v-6.012l-1.66-2.414c-.914-1.328-1.82-2.914-2.013-3.523-.194-.61-1.281-1.583-2.417-2.164-6.93-3.539-21.429.382-29.74 8.044-3.384 3.12-3.463 6.548-.262 11.38 1.575 2.379 3.786 4.058 15.583 11.837 4.077 2.69 8.191 5.545 9.143 6.346l1.73 1.457-1.744.732c-.958.403-3.85.965-6.424 1.25-8.148.902-14.785-.71-19.173-4.654-2.2-1.978-2.454-2.43-2.678-4.763-.202-2.098-.536-2.835-1.801-3.965-.855-.764-1.861-1.389-2.236-1.389-1.035 0-3.653 2.654-4.006 4.06-.79 3.142 2.484 8.698 6.925 11.753 5.64 3.88 11.976 5.488 21.994 5.58 7.104.065 10.896-.609 14.88-2.64l2.033-1.038 1.798 1.44c3.604 2.889 5.9 3.34 8.116 1.597 1.402-1.102 1.705-2.209 3.332-12.157.573-3.504 1.147-6.692 1.277-7.084.13-.392 1.2 1.655 2.38 4.55 2.57 6.308 4.803 9.497 8.37 11.953 3.878 2.671 5.836 2.79 9.156.555 2.412-1.623 2.76-1.726 3.712-1.102 1.745 1.143 3.88 1.384 5.36.605 1.305-.687 1.369-.663 1.676.615.887 3.694 3.898 7.337 7.205 8.716 1.01.422 3.235.765 4.942.762 5.237-.008 9.298-3.038 13.102-9.775l1.476-2.614.342 3.34c.188 1.837.739 4.237 1.224 5.332 2.982 6.743 13.141 8.706 22.233 4.296 3.052-1.48 3.834-2.461 4.302-5.396l.336-2.102 1.321 1.771c1.662 2.23 5.061 4.537 7.301 4.957 2.788.523 8.14-.072 10.656-1.185 3.18-1.407 7.448-5.525 10.289-9.928l2.355-3.65.503 1.92c.278 1.055.657 2.586.844 3.402.702 3.07 4.156 6.177 6.865 6.177 1.183 0 2.734-1.844 2.734-3.252 0-.7-.713-3.203-1.584-5.56-1.476-3.991-1.585-4.722-1.601-10.709-.017-5.984.08-6.66 1.412-9.864 1.692-4.07 3.803-7.78 4.573-8.036.348-.116.773 1.383 1.154 4.067.705 4.964 1.96 6.929 4.763 7.454 1.115.21 1.892.704 2.167 1.376.235.578 1.121 6.165 1.969 12.417.848 6.251 1.766 12.226 2.039 13.276.646 2.486 2.27 4.06 4.927 4.776 2.038.548 2.195.513 3.269-.735 1.525-1.773 1.453-3.318-.632-13.611-2.174-10.734-3.176-17.25-3.179-20.682-.005-4.47-1.891-6.993-5.226-6.993-.825 0-1.407.402-1.786 1.235-.31.68-.717 1.236-.905 1.236-.188 0-.47-1.982-.627-4.405-.438-6.752-2.363-9.433-6.777-9.433-2.465 0-4.193.908-8.11 4.259-1.771 1.515-1.981 1.58-2.549.803-.798-1.09-4.431-1.058-5.539.05-.579.579-.887 2.324-1.165 6.61-.794 12.239-5.099 22.686-11.427 27.734-7.376 5.883-11.638 4.96-11.027-2.39.148-1.768.718-4.836 1.27-6.82 1.175-4.227 6.559-15.218 9.062-18.497 4.67-6.118 4.357-9.772-.839-9.772-2.586 0-4.011 1.578-8.696 9.632-4.412 7.584-6.728 13.159-7.955 19.146-.501 2.444-.992 4.526-1.092 4.625-.101.1-1.28-1.638-2.622-3.864-2.092-3.47-5.738-8.407-10.584-14.333l-1.225-1.498 2.279-2.064c2.164-1.958 5.021-3.242 7.213-3.242.977 0 1.585-1.175 1.6-3.09.019-2.38-4.781-3.889-8.987-2.824-2.846.72-9.815 5.752-10.4 7.51-.85 2.55.717 6.245 4.375 10.32 6.22 6.928 10.969 14.821 11.442 19.015.21 1.865.059 2.315-1.211 3.585-1.013 1.012-2.32 1.632-4.317 2.046-3.735.776-5.978.015-7.263-2.465-1.042-2.01-1.163-3.415-.705-8.152.293-3.027.203-3.668-.718-5.13l-1.054-1.673-1.697 1.645-1.697 1.645-.007-3.433c-.021-9.745-4.487-17.486-12.159-21.076-5.675-2.655-11.48-1.965-14.977 1.782-.66.705-1.346 1.283-1.525 1.283-.18 0-.701-1.343-1.157-2.985-.583-2.096-1.426-3.63-2.83-5.154-1.87-2.029-2.051-2.488-2.754-7.024-.49-3.155-.652-6.376-.466-9.207.22-3.349.115-4.687-.457-5.792-1.24-2.4-3.523-3.116-5.506-1.727Zm132.77 17.675c-1.835.96-1.854 2.883-.049 4.94 1.963 2.236 3.615 5.629 5.193 10.672 2.133 6.81 2.792 11.953 3.24 25.289.234 6.93.643 13.158.91 13.837.826 2.102 2.814 3.553 5.243 3.827 2.082.234 2.279.157 2.748-1.078.279-.732.506-1.956.506-2.72 0-1.347.067-1.382 2.14-1.149l2.141.241 3.296-4.221c1.813-2.321 3.296-4.403 3.297-4.626.001-.223.853-2.06 1.895-4.084 1.912-3.714 3.046-4.87 3.046-3.102 0 1.24 5.554 6.935 8.971 9.201 5.005 3.32 7.623 3.966 15.986 3.947 6.437-.014 8.063-.19 12.355-1.336 6.665-1.78 15.326-6.1 17.963-8.96 2.326-2.524 3.85-6.796 3.111-8.726-.589-1.54-1.971-2.754-3.6-3.161-1.172-.292-1.497-.04-3.153 2.456-1.015 1.53-2.541 3.302-3.389 3.94-5.947 4.462-20.278 8.7-27.063 8.003-3.625-.372-7.668-1.906-9.825-3.728-1.431-1.208-1.63-1.602-1.185-2.353.833-1.407 6.834-5.364 12.632-8.33 5.653-2.892 7.607-4.68 8.124-7.435.765-4.078-3.682-10.064-8.935-12.03-6.127-2.292-14.477-.59-18.409 3.754l-2.101 2.32-1.359-.982c-2.059-1.489-6.884-3.157-9.128-3.157-2.803 0-5.018 1.547-7.488 5.229l-2.104 3.136-1.087-3.318c-1.525-4.655-6.602-14.463-8.045-15.54-1.61-1.202-4.351-1.554-5.877-.756ZM38.439 24.433c.265.698.49 3.644.5 6.549.016 5.146.505 11.928 1.248 17.354l.367 2.684-1.522-.955a2107.06 2107.06 0 0 0-8.707-5.365c-7.142-4.383-11.695-7.88-12.696-9.75-.637-1.191-.026-2.246 3.01-5.193 2.56-2.483 6.26-4.422 10.746-5.632 4.884-1.318 6.462-1.248 7.054.308Zm224.784 10.808c1.835.949 2.616 1.963 2.248 2.921-.166.435-2.227 1.83-4.579 3.1-2.353 1.271-5.221 2.855-6.374 3.519l-2.097 1.208.305-1.651c.735-3.985 3.469-8.334 5.866-9.332 1.51-.628 3.12-.547 4.631.235ZM105.75 37.515c4.221 3.48 6.36 11.483 4.646 17.381-1.441 4.956-7.643 11.834-9.892 10.97-1.202-.46-2.527-3.335-3.506-7.612-1.385-6.043-1.436-6.152-3.015-6.44-1.263-.231-1.432-.462-1.368-1.865.113-2.43 3.194-8.426 5.827-11.34 2.865-3.17 4.494-3.413 7.308-1.094Zm130.842 4.51c.007 1.175-2.565 7.61-6.092 15.24-.969 2.097-1.262 2.436-1.281 1.483-.067-3.284 3.202-13.7 5.545-17.672 1.086-1.841 1.815-1.463 1.828.949Z" clip-rule="evenodd"/><path fill="#000" fill-rule="evenodd" d="M206.952 1.723c-5.486 4.957-3.443 14.03 3.159 14.03 1.18 0 1.286-.171 1.296-2.1.006-1.155.426-3.016.934-4.135 1.996-4.394 1.709-7.898-.736-9.013-1.909-.87-2.519-.71-4.653 1.218ZM77.637 1.655c-.572.4-1.4 1.63-1.842 2.734-1.09 2.722-.468 12.207 1.925 29.402 1.522 10.941 1.702 13.141 1.209 14.815-.552 1.87-2.955 5.832-3.889 6.409-.561.347-4.484-7.28-6.164-11.983-.71-1.985-1.953-7.322-2.764-11.861-1.301-7.288-1.622-8.382-2.746-9.364-1.538-1.343-6.132-1.596-7.132-.391-.328.396-1.55 6.122-2.716 12.725-1.165 6.603-2.407 13.34-2.76 14.97l-.643 2.965-.643-2.718c-1.084-4.589-1.656-10.32-1.656-16.61v-6.012l-1.66-2.414c-.914-1.328-1.82-2.914-2.013-3.523-.194-.61-1.281-1.583-2.417-2.164-6.93-3.539-21.429.382-29.74 8.044-3.384 3.12-3.463 6.548-.262 11.38 1.575 2.379 3.786 4.058 15.583 11.837 4.077 2.69 8.191 5.545 9.143 6.346l1.73 1.457-1.744.732c-.958.403-3.85.965-6.424 1.25-8.148.902-14.785-.71-19.173-4.654-2.2-1.978-2.454-2.43-2.678-4.763-.202-2.098-.536-2.835-1.801-3.965-.855-.764-1.861-1.389-2.236-1.389-1.035 0-3.653 2.654-4.006 4.06-.79 3.142 2.484 8.698 6.925 11.753 5.64 3.88 11.976 5.488 21.994 5.58 7.104.065 10.896-.609 14.88-2.64l2.033-1.038 1.798 1.44c3.604 2.889 5.9 3.34 8.116 1.597 1.402-1.102 1.705-2.209 3.332-12.157.573-3.504 1.147-6.692 1.277-7.084.13-.392 1.2 1.655 2.38 4.55 2.57 6.308 4.803 9.497 8.37 11.953 3.878 2.671 5.836 2.79 9.156.555 2.412-1.623 2.76-1.726 3.712-1.102 1.745 1.143 3.88 1.384 5.36.605 1.305-.687 1.369-.663 1.676.615.887 3.694 3.898 7.337 7.205 8.716 1.01.422 3.235.765 4.942.762 5.237-.008 9.298-3.038 13.102-9.775l1.476-2.614.342 3.34c.188 1.837.739 4.237 1.224 5.332 2.982 6.743 13.141 8.706 22.233 4.296 3.052-1.48 3.834-2.461 4.302-5.396l.336-2.102 1.321 1.771c1.662 2.23 5.061 4.537 7.301 4.957 2.788.523 8.14-.072 10.656-1.185 3.18-1.407 7.448-5.525 10.289-9.928l2.355-3.65.503 1.92c.278 1.055.657 2.586.844 3.402.702 3.07 4.156 6.177 6.865 6.177 1.183 0 2.734-1.844 2.734-3.252 0-.7-.713-3.203-1.584-5.56-1.476-3.991-1.585-4.722-1.601-10.709-.017-5.984.08-6.66 1.412-9.864 1.692-4.07 3.803-7.78 4.573-8.036.348-.116.773 1.383 1.154 4.067.705 4.964 1.96 6.929 4.763 7.454 1.115.21 1.892.704 2.167 1.376.235.578 1.121 6.165 1.969 12.417.848 6.251 1.766 12.226 2.039 13.276.646 2.486 2.27 4.06 4.927 4.776 2.038.548 2.195.513 3.269-.735 1.525-1.773 1.453-3.318-.632-13.611-2.174-10.734-3.176-17.25-3.179-20.682-.005-4.47-1.891-6.993-5.226-6.993-.825 0-1.407.402-1.786 1.235-.31.68-.717 1.236-.905 1.236-.188 0-.47-1.982-.627-4.405-.438-6.752-2.363-9.433-6.777-9.433-2.465 0-4.193.908-8.11 4.259-1.771 1.515-1.981 1.58-2.549.803-.798-1.09-4.431-1.058-5.539.05-.579.579-.887 2.324-1.165 6.61-.794 12.239-5.099 22.686-11.427 27.734-7.376 5.883-11.638 4.96-11.027-2.39.148-1.768.718-4.836 1.27-6.82 1.175-4.227 6.559-15.218 9.062-18.497 4.67-6.118 4.357-9.772-.839-9.772-2.586 0-4.011 1.578-8.696 9.632-4.412 7.584-6.728 13.159-7.955 19.146-.501 2.444-.992 4.526-1.092 4.625-.101.1-1.28-1.638-2.622-3.864-2.092-3.47-5.738-8.407-10.584-14.333l-1.225-1.498 2.279-2.064c2.164-1.958 5.021-3.242 7.213-3.242.977 0 1.585-1.175 1.6-3.09.019-2.38-4.781-3.889-8.987-2.824-2.846.72-9.815 5.752-10.4 7.51-.85 2.55.717 6.245 4.375 10.32 6.22 6.928 10.969 14.821 11.442 19.015.21 1.865.059 2.315-1.211 3.585-1.013 1.012-2.32 1.632-4.317 2.046-3.735.776-5.978.015-7.263-2.465-1.042-2.01-1.163-3.415-.705-8.152.293-3.027.203-3.668-.718-5.13l-1.054-1.673-1.697 1.645-1.697 1.645-.007-3.433c-.021-9.745-4.487-17.486-12.159-21.076-5.675-2.655-11.48-1.965-14.977 1.782-.66.705-1.346 1.283-1.525 1.283-.18 0-.701-1.343-1.157-2.985-.583-2.096-1.426-3.63-2.83-5.154-1.87-2.029-2.051-2.488-2.754-7.024-.49-3.155-.652-6.376-.466-9.207.22-3.349.115-4.687-.457-5.792-1.24-2.4-3.523-3.116-5.506-1.727Zm132.77 17.675c-1.835.96-1.854 2.883-.049 4.94 1.963 2.236 3.615 5.629 5.193 10.672 2.133 6.81 2.792 11.953 3.24 25.289.234 6.93.643 13.158.91 13.837.826 2.102 2.814 3.553 5.243 3.827 2.082.234 2.279.157 2.748-1.078.279-.732.506-1.956.506-2.72 0-1.347.067-1.382 2.14-1.149l2.141.241 3.296-4.221c1.813-2.321 3.296-4.403 3.297-4.626.001-.223.853-2.06 1.895-4.084 1.912-3.714 3.046-4.87 3.046-3.102 0 1.24 5.554 6.935 8.971 9.201 5.005 3.32 7.623 3.966 15.986 3.947 6.437-.014 8.063-.19 12.355-1.336 6.665-1.78 15.326-6.1 17.963-8.96 2.326-2.524 3.85-6.796 3.111-8.726-.589-1.54-1.971-2.754-3.6-3.161-1.172-.292-1.497-.04-3.153 2.456-1.015 1.53-2.541 3.302-3.389 3.94-5.947 4.462-20.278 8.7-27.063 8.003-3.625-.372-7.668-1.906-9.825-3.728-1.431-1.208-1.63-1.602-1.185-2.353.833-1.407 6.834-5.364 12.632-8.33 5.653-2.892 7.607-4.68 8.124-7.435.765-4.078-3.682-10.064-8.935-12.03-6.127-2.292-14.477-.59-18.409 3.754l-2.101 2.32-1.359-.982c-2.059-1.489-6.884-3.157-9.128-3.157-2.803 0-5.018 1.547-7.488 5.229l-2.104 3.136-1.087-3.318c-1.525-4.655-6.602-14.463-8.045-15.54-1.61-1.202-4.351-1.554-5.877-.756ZM38.439 24.433c.265.698.49 3.644.5 6.549.016 5.146.505 11.928 1.248 17.354l.367 2.684-1.522-.955a2107.06 2107.06 0 0 0-8.707-5.365c-7.142-4.383-11.695-7.88-12.696-9.75-.637-1.191-.026-2.246 3.01-5.193 2.56-2.483 6.26-4.422 10.746-5.632 4.884-1.318 6.462-1.248 7.054.308Zm224.784 10.808c1.835.949 2.616 1.963 2.248 2.921-.166.435-2.227 1.83-4.579 3.1-2.353 1.271-5.221 2.855-6.374 3.519l-2.097 1.208.305-1.651c.735-3.985 3.469-8.334 5.866-9.332 1.51-.628 3.12-.547 4.631.235ZM105.75 37.515c4.221 3.48 6.36 11.483 4.646 17.381-1.441 4.956-7.643 11.834-9.892 10.97-1.202-.46-2.527-3.335-3.506-7.612-1.385-6.043-1.436-6.152-3.015-6.44-1.263-.231-1.432-.462-1.368-1.865.113-2.43 3.194-8.426 5.827-11.34 2.865-3.17 4.494-3.413 7.308-1.094Zm130.842 4.51c.007 1.175-2.565 7.61-6.092 15.24-.969 2.097-1.262 2.436-1.281 1.483-.067-3.284 3.202-13.7 5.545-17.672 1.086-1.841 1.815-1.463 1.828.949Z" clip-rule="evenodd"/><path fill="#000" fill-rule="evenodd" d="M206.952 1.723c-5.486 4.957-3.443 14.03 3.159 14.03 1.18 0 1.286-.171 1.296-2.1.006-1.155.426-3.016.934-4.135 1.996-4.394 1.709-7.898-.736-9.013-1.909-.87-2.519-.71-4.653 1.218ZM77.637 1.655c-.572.4-1.4 1.63-1.842 2.734-1.09 2.722-.468 12.207 1.925 29.402 1.522 10.941 1.702 13.141 1.209 14.815-.552 1.87-2.955 5.832-3.889 6.409-.561.347-4.484-7.28-6.164-11.983-.71-1.985-1.953-7.322-2.764-11.861-1.301-7.288-1.622-8.382-2.746-9.364-1.538-1.343-6.132-1.596-7.132-.391-.328.396-1.55 6.122-2.716 12.725-1.165 6.603-2.407 13.34-2.76 14.97l-.643 2.965-.643-2.718c-1.084-4.589-1.656-10.32-1.656-16.61v-6.012l-1.66-2.414c-.914-1.328-1.82-2.914-2.013-3.523-.194-.61-1.281-1.583-2.417-2.164-6.93-3.539-21.429.382-29.74 8.044-3.384 3.12-3.463 6.548-.262 11.38 1.575 2.379 3.786 4.058 15.583 11.837 4.077 2.69 8.191 5.545 9.143 6.346l1.73 1.457-1.744.732c-.958.403-3.85.965-6.424 1.25-8.148.902-14.785-.71-19.173-4.654-2.2-1.978-2.454-2.43-2.678-4.763-.202-2.098-.536-2.835-1.801-3.965-.855-.764-1.861-1.389-2.236-1.389-1.035 0-3.653 2.654-4.006 4.06-.79 3.142 2.484 8.698 6.925 11.753 5.64 3.88 11.976 5.488 21.994 5.58 7.104.065 10.896-.609 14.88-2.64l2.033-1.038 1.798 1.44c3.604 2.889 5.9 3.34 8.116 1.597 1.402-1.102 1.705-2.209 3.332-12.157.573-3.504 1.147-6.692 1.277-7.084.13-.392 1.2 1.655 2.38 4.55 2.57 6.308 4.803 9.497 8.37 11.953 3.878 2.671 5.836 2.79 9.156.555 2.412-1.623 2.76-1.726 3.712-1.102 1.745 1.143 3.88 1.384 5.36.605 1.305-.687 1.369-.663 1.676.615.887 3.694 3.898 7.337 7.205 8.716 1.01.422 3.235.765 4.942.762 5.237-.008 9.298-3.038 13.102-9.775l1.476-2.614.342 3.34c.188 1.837.739 4.237 1.224 5.332 2.982 6.743 13.141 8.706 22.233 4.296 3.052-1.48 3.834-2.461 4.302-5.396l.336-2.102 1.321 1.771c1.662 2.23 5.061 4.537 7.301 4.957 2.788.523 8.14-.072 10.656-1.185 3.18-1.407 7.448-5.525 10.289-9.928l2.355-3.65.503 1.92c.278 1.055.657 2.586.844 3.402.702 3.07 4.156 6.177 6.865 6.177 1.183 0 2.734-1.844 2.734-3.252 0-.7-.713-3.203-1.584-5.56-1.476-3.991-1.585-4.722-1.601-10.709-.017-5.984.08-6.66 1.412-9.864 1.692-4.07 3.803-7.78 4.573-8.036.348-.116.773 1.383 1.154 4.067.705 4.964 1.96 6.929 4.763 7.454 1.115.21 1.892.704 2.167 1.376.235.578 1.121 6.165 1.969 12.417.848 6.251 1.766 12.226 2.039 13.276.646 2.486 2.27 4.06 4.927 4.776 2.038.548 2.195.513 3.269-.735 1.525-1.773 1.453-3.318-.632-13.611-2.174-10.734-3.176-17.25-3.179-20.682-.005-4.47-1.891-6.993-5.226-6.993-.825 0-1.407.402-1.786 1.235-.31.68-.717 1.236-.905 1.236-.188 0-.47-1.982-.627-4.405-.438-6.752-2.363-9.433-6.777-9.433-2.465 0-4.193.908-8.11 4.259-1.771 1.515-1.981 1.58-2.549.803-.798-1.09-4.431-1.058-5.539.05-.579.579-.887 2.324-1.165 6.61-.794 12.239-5.099 22.686-11.427 27.734-7.376 5.883-11.638 4.96-11.027-2.39.148-1.768.718-4.836 1.27-6.82 1.175-4.227 6.559-15.218 9.062-18.497 4.67-6.118 4.357-9.772-.839-9.772-2.586 0-4.011 1.578-8.696 9.632-4.412 7.584-6.728 13.159-7.955 19.146-.501 2.444-.992 4.526-1.092 4.625-.101.1-1.28-1.638-2.622-3.864-2.092-3.47-5.738-8.407-10.584-14.333l-1.225-1.498 2.279-2.064c2.164-1.958 5.021-3.242 7.213-3.242.977 0 1.585-1.175 1.6-3.09.019-2.38-4.781-3.889-8.987-2.824-2.846.72-9.815 5.752-10.4 7.51-.85 2.55.717 6.245 4.375 10.32 6.22 6.928 10.969 14.821 11.442 19.015.21 1.865.059 2.315-1.211 3.585-1.013 1.012-2.32 1.632-4.317 2.046-3.735.776-5.978.015-7.263-2.465-1.042-2.01-1.163-3.415-.705-8.152.293-3.027.203-3.668-.718-5.13l-1.054-1.673-1.697 1.645-1.697 1.645-.007-3.433c-.021-9.745-4.487-17.486-12.159-21.076-5.675-2.655-11.48-1.965-14.977 1.782-.66.705-1.346 1.283-1.525 1.283-.18 0-.701-1.343-1.157-2.985-.583-2.096-1.426-3.63-2.83-5.154-1.87-2.029-2.051-2.488-2.754-7.024-.49-3.155-.652-6.376-.466-9.207.22-3.349.115-4.687-.457-5.792-1.24-2.4-3.523-3.116-5.506-1.727Zm132.77 17.675c-1.835.96-1.854 2.883-.049 4.94 1.963 2.236 3.615 5.629 5.193 10.672 2.133 6.81 2.792 11.953 3.24 25.289.234 6.93.643 13.158.91 13.837.826 2.102 2.814 3.553 5.243 3.827 2.082.234 2.279.157 2.748-1.078.279-.732.506-1.956.506-2.72 0-1.347.067-1.382 2.14-1.149l2.141.241 3.296-4.221c1.813-2.321 3.296-4.403 3.297-4.626.001-.223.853-2.06 1.895-4.084 1.912-3.714 3.046-4.87 3.046-3.102 0 1.24 5.554 6.935 8.971 9.201 5.005 3.32 7.623 3.966 15.986 3.947 6.437-.014 8.063-.19 12.355-1.336 6.665-1.78 15.326-6.1 17.963-8.96 2.326-2.524 3.85-6.796 3.111-8.726-.589-1.54-1.971-2.754-3.6-3.161-1.172-.292-1.497-.04-3.153 2.456-1.015 1.53-2.541 3.302-3.389 3.94-5.947 4.462-20.278 8.7-27.063 8.003-3.625-.372-7.668-1.906-9.825-3.728-1.431-1.208-1.63-1.602-1.185-2.353.833-1.407 6.834-5.364 12.632-8.33 5.653-2.892 7.607-4.68 8.124-7.435.765-4.078-3.682-10.064-8.935-12.03-6.127-2.292-14.477-.59-18.409 3.754l-2.101 2.32-1.359-.982c-2.059-1.489-6.884-3.157-9.128-3.157-2.803 0-5.018 1.547-7.488 5.229l-2.104 3.136-1.087-3.318c-1.525-4.655-6.602-14.463-8.045-15.54-1.61-1.202-4.351-1.554-5.877-.756ZM38.439 24.433c.265.698.49 3.644.5 6.549.016 5.146.505 11.928 1.248 17.354l.367 2.684-1.522-.955a2107.06 2107.06 0 0 0-8.707-5.365c-7.142-4.383-11.695-7.88-12.696-9.75-.637-1.191-.026-2.246 3.01-5.193 2.56-2.483 6.26-4.422 10.746-5.632 4.884-1.318 6.462-1.248 7.054.308Zm224.784 10.808c1.835.949 2.616 1.963 2.248 2.921-.166.435-2.227 1.83-4.579 3.1-2.353 1.271-5.221 2.855-6.374 3.519l-2.097 1.208.305-1.651c.735-3.985 3.469-8.334 5.866-9.332 1.51-.628 3.12-.547 4.631.235ZM105.75 37.515c4.221 3.48 6.36 11.483 4.646 17.381-1.441 4.956-7.643 11.834-9.892 10.97-1.202-.46-2.527-3.335-3.506-7.612-1.385-6.043-1.436-6.152-3.015-6.44-1.263-.231-1.432-.462-1.368-1.865.113-2.43 3.194-8.426 5.827-11.34 2.865-3.17 4.494-3.413 7.308-1.094Zm130.842 4.51c.007 1.175-2.565 7.61-6.092 15.24-.969 2.097-1.262 2.436-1.281 1.483-.067-3.284 3.202-13.7 5.545-17.672 1.086-1.841 1.815-1.463 1.828.949Z" clip-rule="evenodd"/><path fill="#000" fill-rule="evenodd" d="M206.952 1.723c-5.486 4.957-3.443 14.03 3.159 14.03 1.18 0 1.286-.171 1.296-2.1.006-1.155.426-3.016.934-4.135 1.996-4.394 1.709-7.898-.736-9.013-1.909-.87-2.519-.71-4.653 1.218ZM77.637 1.655c-.572.4-1.4 1.63-1.842 2.734-1.09 2.722-.468 12.207 1.925 29.402 1.522 10.941 1.702 13.141 1.209 14.815-.552 1.87-2.955 5.832-3.889 6.409-.561.347-4.484-7.28-6.164-11.983-.71-1.985-1.953-7.322-2.764-11.861-1.301-7.288-1.622-8.382-2.746-9.364-1.538-1.343-6.132-1.596-7.132-.391-.328.396-1.55 6.122-2.716 12.725-1.165 6.603-2.407 13.34-2.76 14.97l-.643 2.965-.643-2.718c-1.084-4.589-1.656-10.32-1.656-16.61v-6.012l-1.66-2.414c-.914-1.328-1.82-2.914-2.013-3.523-.194-.61-1.281-1.583-2.417-2.164-6.93-3.539-21.429.382-29.74 8.044-3.384 3.12-3.463 6.548-.262 11.38 1.575 2.379 3.786 4.058 15.583 11.837 4.077 2.69 8.191 5.545 9.143 6.346l1.73 1.457-1.744.732c-.958.403-3.85.965-6.424 1.25-8.148.902-14.785-.71-19.173-4.654-2.2-1.978-2.454-2.43-2.678-4.763-.202-2.098-.536-2.835-1.801-3.965-.855-.764-1.861-1.389-2.236-1.389-1.035 0-3.653 2.654-4.006 4.06-.79 3.142 2.484 8.698 6.925 11.753 5.64 3.88 11.976 5.488 21.994 5.58 7.104.065 10.896-.609 14.88-2.64l2.033-1.038 1.798 1.44c3.604 2.889 5.9 3.34 8.116 1.597 1.402-1.102 1.705-2.209 3.332-12.157.573-3.504 1.147-6.692 1.277-7.084.13-.392 1.2 1.655 2.38 4.55 2.57 6.308 4.803 9.497 8.37 11.953 3.878 2.671 5.836 2.79 9.156.555 2.412-1.623 2.76-1.726 3.712-1.102 1.745 1.143 3.88 1.384 5.36.605 1.305-.687 1.369-.663 1.676.615.887 3.694 3.898 7.337 7.205 8.716 1.01.422 3.235.765 4.942.762 5.237-.008 9.298-3.038 13.102-9.775l1.476-2.614.342 3.34c.188 1.837.739 4.237 1.224 5.332 2.982 6.743 13.141 8.706 22.233 4.296 3.052-1.48 3.834-2.461 4.302-5.396l.336-2.102 1.321 1.771c1.662 2.23 5.061 4.537 7.301 4.957 2.788.523 8.14-.072 10.656-1.185 3.18-1.407 7.448-5.525 10.289-9.928l2.355-3.65.503 1.92c.278 1.055.657 2.586.844 3.402.702 3.07 4.156 6.177 6.865 6.177 1.183 0 2.734-1.844 2.734-3.252 0-.7-.713-3.203-1.584-5.56-1.476-3.991-1.585-4.722-1.601-10.709-.017-5.984.08-6.66 1.412-9.864 1.692-4.07 3.803-7.78 4.573-8.036.348-.116.773 1.383 1.154 4.067.705 4.964 1.96 6.929 4.763 7.454 1.115.21 1.892.704 2.167 1.376.235.578 1.121 6.165 1.969 12.417.848 6.251 1.766 12.226 2.039 13.276.646 2.486 2.27 4.06 4.927 4.776 2.038.548 2.195.513 3.269-.735 1.525-1.773 1.453-3.318-.632-13.611-2.174-10.734-3.176-17.25-3.179-20.682-.005-4.47-1.891-6.993-5.226-6.993-.825 0-1.407.402-1.786 1.235-.31.68-.717 1.236-.905 1.236-.188 0-.47-1.982-.627-4.405-.438-6.752-2.363-9.433-6.777-9.433-2.465 0-4.193.908-8.11 4.259-1.771 1.515-1.981 1.58-2.549.803-.798-1.09-4.431-1.058-5.539.05-.579.579-.887 2.324-1.165 6.61-.794 12.239-5.099 22.686-11.427 27.734-7.376 5.883-11.638 4.96-11.027-2.39.148-1.768.718-4.836 1.27-6.82 1.175-4.227 6.559-15.218 9.062-18.497 4.67-6.118 4.357-9.772-.839-9.772-2.586 0-4.011 1.578-8.696 9.632-4.412 7.584-6.728 13.159-7.955 19.146-.501 2.444-.992 4.526-1.092 4.625-.101.1-1.28-1.638-2.622-3.864-2.092-3.47-5.738-8.407-10.584-14.333l-1.225-1.498 2.279-2.064c2.164-1.958 5.021-3.242 7.213-3.242.977 0 1.585-1.175 1.6-3.09.019-2.38-4.781-3.889-8.987-2.824-2.846.72-9.815 5.752-10.4 7.51-.85 2.55.717 6.245 4.375 10.32 6.22 6.928 10.969 14.821 11.442 19.015.21 1.865.059 2.315-1.211 3.585-1.013 1.012-2.32 1.632-4.317 2.046-3.735.776-5.978.015-7.263-2.465-1.042-2.01-1.163-3.415-.705-8.152.293-3.027.203-3.668-.718-5.13l-1.054-1.673-1.697 1.645-1.697 1.645-.007-3.433c-.021-9.745-4.487-17.486-12.159-21.076-5.675-2.655-11.48-1.965-14.977 1.782-.66.705-1.346 1.283-1.525 1.283-.18 0-.701-1.343-1.157-2.985-.583-2.096-1.426-3.63-2.83-5.154-1.87-2.029-2.051-2.488-2.754-7.024-.49-3.155-.652-6.376-.466-9.207.22-3.349.115-4.687-.457-5.792-1.24-2.4-3.523-3.116-5.506-1.727Zm132.77 17.675c-1.835.96-1.854 2.883-.049 4.94 1.963 2.236 3.615 5.629 5.193 10.672 2.133 6.81 2.792 11.953 3.24 25.289.234 6.93.643 13.158.91 13.837.826 2.102 2.814 3.553 5.243 3.827 2.082.234 2.279.157 2.748-1.078.279-.732.506-1.956.506-2.72 0-1.347.067-1.382 2.14-1.149l2.141.241 3.296-4.221c1.813-2.321 3.296-4.403 3.297-4.626.001-.223.853-2.06 1.895-4.084 1.912-3.714 3.046-4.87 3.046-3.102 0 1.24 5.554 6.935 8.971 9.201 5.005 3.32 7.623 3.966 15.986 3.947 6.437-.014 8.063-.19 12.355-1.336 6.665-1.78 15.326-6.1 17.963-8.96 2.326-2.524 3.85-6.796 3.111-8.726-.589-1.54-1.971-2.754-3.6-3.161-1.172-.292-1.497-.04-3.153 2.456-1.015 1.53-2.541 3.302-3.389 3.94-5.947 4.462-20.278 8.7-27.063 8.003-3.625-.372-7.668-1.906-9.825-3.728-1.431-1.208-1.63-1.602-1.185-2.353.833-1.407 6.834-5.364 12.632-8.33 5.653-2.892 7.607-4.68 8.124-7.435.765-4.078-3.682-10.064-8.935-12.03-6.127-2.292-14.477-.59-18.409 3.754l-2.101 2.32-1.359-.982c-2.059-1.489-6.884-3.157-9.128-3.157-2.803 0-5.018 1.547-7.488 5.229l-2.104 3.136-1.087-3.318c-1.525-4.655-6.602-14.463-8.045-15.54-1.61-1.202-4.351-1.554-5.877-.756ZM38.439 24.433c.265.698.49 3.644.5 6.549.016 5.146.505 11.928 1.248 17.354l.367 2.684-1.522-.955a2107.06 2107.06 0 0 0-8.707-5.365c-7.142-4.383-11.695-7.88-12.696-9.75-.637-1.191-.026-2.246 3.01-5.193 2.56-2.483 6.26-4.422 10.746-5.632 4.884-1.318 6.462-1.248 7.054.308Zm224.784 10.808c1.835.949 2.616 1.963 2.248 2.921-.166.435-2.227 1.83-4.579 3.1-2.353 1.271-5.221 2.855-6.374 3.519l-2.097 1.208.305-1.651c.735-3.985 3.469-8.334 5.866-9.332 1.51-.628 3.12-.547 4.631.235ZM105.75 37.515c4.221 3.48 6.36 11.483 4.646 17.381-1.441 4.956-7.643 11.834-9.892 10.97-1.202-.46-2.527-3.335-3.506-7.612-1.385-6.043-1.436-6.152-3.015-6.44-1.263-.231-1.432-.462-1.368-1.865.113-2.43 3.194-8.426 5.827-11.34 2.865-3.17 4.494-3.413 7.308-1.094Zm130.842 4.51c.007 1.175-2.565 7.61-6.092 15.24-.969 2.097-1.262 2.436-1.281 1.483-.067-3.284 3.202-13.7 5.545-17.672 1.086-1.841 1.815-1.463 1.828.949Z" clip-rule="evenodd"/><path fill="#000" fill-rule="evenodd" d="M206.952 1.723c-5.486 4.957-3.443 14.03 3.159 14.03 1.18 0 1.286-.171 1.296-2.1.006-1.155.426-3.016.934-4.135 1.996-4.394 1.709-7.898-.736-9.013-1.909-.87-2.519-.71-4.653 1.218ZM77.637 1.655c-.572.4-1.4 1.63-1.842 2.734-1.09 2.722-.468 12.207 1.925 29.402 1.522 10.941 1.702 13.141 1.209 14.815-.552 1.87-2.955 5.832-3.889 6.409-.561.347-4.484-7.28-6.164-11.983-.71-1.985-1.953-7.322-2.764-11.861-1.301-7.288-1.622-8.382-2.746-9.364-1.538-1.343-6.132-1.596-7.132-.391-.328.396-1.55 6.122-2.716 12.725-1.165 6.603-2.407 13.34-2.76 14.97l-.643 2.965-.643-2.718c-1.084-4.589-1.656-10.32-1.656-16.61v-6.012l-1.66-2.414c-.914-1.328-1.82-2.914-2.013-3.523-.194-.61-1.281-1.583-2.417-2.164-6.93-3.539-21.429.382-29.74 8.044-3.384 3.12-3.463 6.548-.262 11.38 1.575 2.379 3.786 4.058 15.583 11.837 4.077 2.69 8.191 5.545 9.143 6.346l1.73 1.457-1.744.732c-.958.403-3.85.965-6.424 1.25-8.148.902-14.785-.71-19.173-4.654-2.2-1.978-2.454-2.43-2.678-4.763-.202-2.098-.536-2.835-1.801-3.965-.855-.764-1.861-1.389-2.236-1.389-1.035 0-3.653 2.654-4.006 4.06-.79 3.142 2.484 8.698 6.925 11.753 5.64 3.88 11.976 5.488 21.994 5.58 7.104.065 10.896-.609 14.88-2.64l2.033-1.038 1.798 1.44c3.604 2.889 5.9 3.34 8.116 1.597 1.402-1.102 1.705-2.209 3.332-12.157.573-3.504 1.147-6.692 1.277-7.084.13-.392 1.2 1.655 2.38 4.55 2.57 6.308 4.803 9.497 8.37 11.953 3.878 2.671 5.836 2.79 9.156.555 2.412-1.623 2.76-1.726 3.712-1.102 1.745 1.143 3.88 1.384 5.36.605 1.305-.687 1.369-.663 1.676.615.887 3.694 3.898 7.337 7.205 8.716 1.01.422 3.235.765 4.942.762 5.237-.008 9.298-3.038 13.102-9.775l1.476-2.614.342 3.34c.188 1.837.739 4.237 1.224 5.332 2.982 6.743 13.141 8.706 22.233 4.296 3.052-1.48 3.834-2.461 4.302-5.396l.336-2.102 1.321 1.771c1.662 2.23 5.061 4.537 7.301 4.957 2.788.523 8.14-.072 10.656-1.185 3.18-1.407 7.448-5.525 10.289-9.928l2.355-3.65.503 1.92c.278 1.055.657 2.586.844 3.402.702 3.07 4.156 6.177 6.865 6.177 1.183 0 2.734-1.844 2.734-3.252 0-.7-.713-3.203-1.584-5.56-1.476-3.991-1.585-4.722-1.601-10.709-.017-5.984.08-6.66 1.412-9.864 1.692-4.07 3.803-7.78 4.573-8.036.348-.116.773 1.383 1.154 4.067.705 4.964 1.96 6.929 4.763 7.454 1.115.21 1.892.704 2.167 1.376.235.578 1.121 6.165 1.969 12.417.848 6.251 1.766 12.226 2.039 13.276.646 2.486 2.27 4.06 4.927 4.776 2.038.548 2.195.513 3.269-.735 1.525-1.773 1.453-3.318-.632-13.611-2.174-10.734-3.176-17.25-3.179-20.682-.005-4.47-1.891-6.993-5.226-6.993-.825 0-1.407.402-1.786 1.235-.31.68-.717 1.236-.905 1.236-.188 0-.47-1.982-.627-4.405-.438-6.752-2.363-9.433-6.777-9.433-2.465 0-4.193.908-8.11 4.259-1.771 1.515-1.981 1.58-2.549.803-.798-1.09-4.431-1.058-5.539.05-.579.579-.887 2.324-1.165 6.61-.794 12.239-5.099 22.686-11.427 27.734-7.376 5.883-11.638 4.96-11.027-2.39.148-1.768.718-4.836 1.27-6.82 1.175-4.227 6.559-15.218 9.062-18.497 4.67-6.118 4.357-9.772-.839-9.772-2.586 0-4.011 1.578-8.696 9.632-4.412 7.584-6.728 13.159-7.955 19.146-.501 2.444-.992 4.526-1.092 4.625-.101.1-1.28-1.638-2.622-3.864-2.092-3.47-5.738-8.407-10.584-14.333l-1.225-1.498 2.279-2.064c2.164-1.958 5.021-3.242 7.213-3.242.977 0 1.585-1.175 1.6-3.09.019-2.38-4.781-3.889-8.987-2.824-2.846.72-9.815 5.752-10.4 7.51-.85 2.55.717 6.245 4.375 10.32 6.22 6.928 10.969 14.821 11.442 19.015.21 1.865.059 2.315-1.211 3.585-1.013 1.012-2.32 1.632-4.317 2.046-3.735.776-5.978.015-7.263-2.465-1.042-2.01-1.163-3.415-.705-8.152.293-3.027.203-3.668-.718-5.13l-1.054-1.673-1.697 1.645-1.697 1.645-.007-3.433c-.021-9.745-4.487-17.486-12.159-21.076-5.675-2.655-11.48-1.965-14.977 1.782-.66.705-1.346 1.283-1.525 1.283-.18 0-.701-1.343-1.157-2.985-.583-2.096-1.426-3.63-2.83-5.154-1.87-2.029-2.051-2.488-2.754-7.024-.49-3.155-.652-6.376-.466-9.207.22-3.349.115-4.687-.457-5.792-1.24-2.4-3.523-3.116-5.506-1.727Zm132.77 17.675c-1.835.96-1.854 2.883-.049 4.94 1.963 2.236 3.615 5.629 5.193 10.672 2.133 6.81 2.792 11.953 3.24 25.289.234 6.93.643 13.158.91 13.837.826 2.102 2.814 3.553 5.243 3.827 2.082.234 2.279.157 2.748-1.078.279-.732.506-1.956.506-2.72 0-1.347.067-1.382 2.14-1.149l2.141.241 3.296-4.221c1.813-2.321 3.296-4.403 3.297-4.626.001-.223.853-2.06 1.895-4.084 1.912-3.714 3.046-4.87 3.046-3.102 0 1.24 5.554 6.935 8.971 9.201 5.005 3.32 7.623 3.966 15.986 3.947 6.437-.014 8.063-.19 12.355-1.336 6.665-1.78 15.326-6.1 17.963-8.96 2.326-2.524 3.85-6.796 3.111-8.726-.589-1.54-1.971-2.754-3.6-3.161-1.172-.292-1.497-.04-3.153 2.456-1.015 1.53-2.541 3.302-3.389 3.94-5.947 4.462-20.278 8.7-27.063 8.003-3.625-.372-7.668-1.906-9.825-3.728-1.431-1.208-1.63-1.602-1.185-2.353.833-1.407 6.834-5.364 12.632-8.33 5.653-2.892 7.607-4.68 8.124-7.435.765-4.078-3.682-10.064-8.935-12.03-6.127-2.292-14.477-.59-18.409 3.754l-2.101 2.32-1.359-.982c-2.059-1.489-6.884-3.157-9.128-3.157-2.803 0-5.018 1.547-7.488 5.229l-2.104 3.136-1.087-3.318c-1.525-4.655-6.602-14.463-8.045-15.54-1.61-1.202-4.351-1.554-5.877-.756ZM38.439 24.433c.265.698.49 3.644.5 6.549.016 5.146.505 11.928 1.248 17.354l.367 2.684-1.522-.955a2107.06 2107.06 0 0 0-8.707-5.365c-7.142-4.383-11.695-7.88-12.696-9.75-.637-1.191-.026-2.246 3.01-5.193 2.56-2.483 6.26-4.422 10.746-5.632 4.884-1.318 6.462-1.248 7.054.308Zm224.784 10.808c1.835.949 2.616 1.963 2.248 2.921-.166.435-2.227 1.83-4.579 3.1-2.353 1.271-5.221 2.855-6.374 3.519l-2.097 1.208.305-1.651c.735-3.985 3.469-8.334 5.866-9.332 1.51-.628 3.12-.547 4.631.235ZM105.75 37.515c4.221 3.48 6.36 11.483 4.646 17.381-1.441 4.956-7.643 11.834-9.892 10.97-1.202-.46-2.527-3.335-3.506-7.612-1.385-6.043-1.436-6.152-3.015-6.44-1.263-.231-1.432-.462-1.368-1.865.113-2.43 3.194-8.426 5.827-11.34 2.865-3.17 4.494-3.413 7.308-1.094Zm130.842 4.51c.007 1.175-2.565 7.61-6.092 15.24-.969 2.097-1.262 2.436-1.281 1.483-.067-3.284 3.202-13.7 5.545-17.672 1.086-1.841 1.815-1.463 1.828.949Z" clip-rule="evenodd"/><path fill="#000" fill-rule="evenodd" d="M206.952 1.723c-5.486 4.957-3.443 14.03 3.159 14.03 1.18 0 1.286-.171 1.296-2.1.006-1.155.426-3.016.934-4.135 1.996-4.394 1.709-7.898-.736-9.013-1.909-.87-2.519-.71-4.653 1.218ZM77.637 1.655c-.572.4-1.4 1.63-1.842 2.734-1.09 2.722-.468 12.207 1.925 29.402 1.522 10.941 1.702 13.141 1.209 14.815-.552 1.87-2.955 5.832-3.889 6.409-.561.347-4.484-7.28-6.164-11.983-.71-1.985-1.953-7.322-2.764-11.861-1.301-7.288-1.622-8.382-2.746-9.364-1.538-1.343-6.132-1.596-7.132-.391-.328.396-1.55 6.122-2.716 12.725-1.165 6.603-2.407 13.34-2.76 14.97l-.643 2.965-.643-2.718c-1.084-4.589-1.656-10.32-1.656-16.61v-6.012l-1.66-2.414c-.914-1.328-1.82-2.914-2.013-3.523-.194-.61-1.281-1.583-2.417-2.164-6.93-3.539-21.429.382-29.74 8.044-3.384 3.12-3.463 6.548-.262 11.38 1.575 2.379 3.786 4.058 15.583 11.837 4.077 2.69 8.191 5.545 9.143 6.346l1.73 1.457-1.744.732c-.958.403-3.85.965-6.424 1.25-8.148.902-14.785-.71-19.173-4.654-2.2-1.978-2.454-2.43-2.678-4.763-.202-2.098-.536-2.835-1.801-3.965-.855-.764-1.861-1.389-2.236-1.389-1.035 0-3.653 2.654-4.006 4.06-.79 3.142 2.484 8.698 6.925 11.753 5.64 3.88 11.976 5.488 21.994 5.58 7.104.065 10.896-.609 14.88-2.64l2.033-1.038 1.798 1.44c3.604 2.889 5.9 3.34 8.116 1.597 1.402-1.102 1.705-2.209 3.332-12.157.573-3.504 1.147-6.692 1.277-7.084.13-.392 1.2 1.655 2.38 4.55 2.57 6.308 4.803 9.497 8.37 11.953 3.878 2.671 5.836 2.79 9.156.555 2.412-1.623 2.76-1.726 3.712-1.102 1.745 1.143 3.88 1.384 5.36.605 1.305-.687 1.369-.663 1.676.615.887 3.694 3.898 7.337 7.205 8.716 1.01.422 3.235.765 4.942.762 5.237-.008 9.298-3.038 13.102-9.775l1.476-2.614.342 3.34c.188 1.837.739 4.237 1.224 5.332 2.982 6.743 13.141 8.706 22.233 4.296 3.052-1.48 3.834-2.461 4.302-5.396l.336-2.102 1.321 1.771c1.662 2.23 5.061 4.537 7.301 4.957 2.788.523 8.14-.072 10.656-1.185 3.18-1.407 7.448-5.525 10.289-9.928l2.355-3.65.503 1.92c.278 1.055.657 2.586.844 3.402.702 3.07 4.156 6.177 6.865 6.177 1.183 0 2.734-1.844 2.734-3.252 0-.7-.713-3.203-1.584-5.56-1.476-3.991-1.585-4.722-1.601-10.709-.017-5.984.08-6.66 1.412-9.864 1.692-4.07 3.803-7.78 4.573-8.036.348-.116.773 1.383 1.154 4.067.705 4.964 1.96 6.929 4.763 7.454 1.115.21 1.892.704 2.167 1.376.235.578 1.121 6.165 1.969 12.417.848 6.251 1.766 12.226 2.039 13.276.646 2.486 2.27 4.06 4.927 4.776 2.038.548 2.195.513 3.269-.735 1.525-1.773 1.453-3.318-.632-13.611-2.174-10.734-3.176-17.25-3.179-20.682-.005-4.47-1.891-6.993-5.226-6.993-.825 0-1.407.402-1.786 1.235-.31.68-.717 1.236-.905 1.236-.188 0-.47-1.982-.627-4.405-.438-6.752-2.363-9.433-6.777-9.433-2.465 0-4.193.908-8.11 4.259-1.771 1.515-1.981 1.58-2.549.803-.798-1.09-4.431-1.058-5.539.05-.579.579-.887 2.324-1.165 6.61-.794 12.239-5.099 22.686-11.427 27.734-7.376 5.883-11.638 4.96-11.027-2.39.148-1.768.718-4.836 1.27-6.82 1.175-4.227 6.559-15.218 9.062-18.497 4.67-6.118 4.357-9.772-.839-9.772-2.586 0-4.011 1.578-8.696 9.632-4.412 7.584-6.728 13.159-7.955 19.146-.501 2.444-.992 4.526-1.092 4.625-.101.1-1.28-1.638-2.622-3.864-2.092-3.47-5.738-8.407-10.584-14.333l-1.225-1.498 2.279-2.064c2.164-1.958 5.021-3.242 7.213-3.242.977 0 1.585-1.175 1.6-3.09.019-2.38-4.781-3.889-8.987-2.824-2.846.72-9.815 5.752-10.4 7.51-.85 2.55.717 6.245 4.375 10.32 6.22 6.928 10.969 14.821 11.442 19.015.21 1.865.059 2.315-1.211 3.585-1.013 1.012-2.32 1.632-4.317 2.046-3.735.776-5.978.015-7.263-2.465-1.042-2.01-1.163-3.415-.705-8.152.293-3.027.203-3.668-.718-5.13l-1.054-1.673-1.697 1.645-1.697 1.645-.007-3.433c-.021-9.745-4.487-17.486-12.159-21.076-5.675-2.655-11.48-1.965-14.977 1.782-.66.705-1.346 1.283-1.525 1.283-.18 0-.701-1.343-1.157-2.985-.583-2.096-1.426-3.63-2.83-5.154-1.87-2.029-2.051-2.488-2.754-7.024-.49-3.155-.652-6.376-.466-9.207.22-3.349.115-4.687-.457-5.792-1.24-2.4-3.523-3.116-5.506-1.727Zm132.77 17.675c-1.835.96-1.854 2.883-.049 4.94 1.963 2.236 3.615 5.629 5.193 10.672 2.133 6.81 2.792 11.953 3.24 25.289.234 6.93.643 13.158.91 13.837.826 2.102 2.814 3.553 5.243 3.827 2.082.234 2.279.157 2.748-1.078.279-.732.506-1.956.506-2.72 0-1.347.067-1.382 2.14-1.149l2.141.241 3.296-4.221c1.813-2.321 3.296-4.403 3.297-4.626.001-.223.853-2.06 1.895-4.084 1.912-3.714 3.046-4.87 3.046-3.102 0 1.24 5.554 6.935 8.971 9.201 5.005 3.32 7.623 3.966 15.986 3.947 6.437-.014 8.063-.19 12.355-1.336 6.665-1.78 15.326-6.1 17.963-8.96 2.326-2.524 3.85-6.796 3.111-8.726-.589-1.54-1.971-2.754-3.6-3.161-1.172-.292-1.497-.04-3.153 2.456-1.015 1.53-2.541 3.302-3.389 3.94-5.947 4.462-20.278 8.7-27.063 8.003-3.625-.372-7.668-1.906-9.825-3.728-1.431-1.208-1.63-1.602-1.185-2.353.833-1.407 6.834-5.364 12.632-8.33 5.653-2.892 7.607-4.68 8.124-7.435.765-4.078-3.682-10.064-8.935-12.03-6.127-2.292-14.477-.59-18.409 3.754l-2.101 2.32-1.359-.982c-2.059-1.489-6.884-3.157-9.128-3.157-2.803 0-5.018 1.547-7.488 5.229l-2.104 3.136-1.087-3.318c-1.525-4.655-6.602-14.463-8.045-15.54-1.61-1.202-4.351-1.554-5.877-.756ZM38.439 24.433c.265.698.49 3.644.5 6.549.016 5.146.505 11.928 1.248 17.354l.367 2.684-1.522-.955a2107.06 2107.06 0 0 0-8.707-5.365c-7.142-4.383-11.695-7.88-12.696-9.75-.637-1.191-.026-2.246 3.01-5.193 2.56-2.483 6.26-4.422 10.746-5.632 4.884-1.318 6.462-1.248 7.054.308Zm224.784 10.808c1.835.949 2.616 1.963 2.248 2.921-.166.435-2.227 1.83-4.579 3.1-2.353 1.271-5.221 2.855-6.374 3.519l-2.097 1.208.305-1.651c.735-3.985 3.469-8.334 5.866-9.332 1.51-.628 3.12-.547 4.631.235ZM105.75 37.515c4.221 3.48 6.36 11.483 4.646 17.381-1.441 4.956-7.643 11.834-9.892 10.97-1.202-.46-2.527-3.335-3.506-7.612-1.385-6.043-1.436-6.152-3.015-6.44-1.263-.231-1.432-.462-1.368-1.865.113-2.43 3.194-8.426 5.827-11.34 2.865-3.17 4.494-3.413 7.308-1.094Zm130.842 4.51c.007 1.175-2.565 7.61-6.092 15.24-.969 2.097-1.262 2.436-1.281 1.483-.067-3.284 3.202-13.7 5.545-17.672 1.086-1.841 1.815-1.463 1.828.949Z" clip-rule="evenodd"/></svg>